G04 EAGLE Gerber RS-274X export*
G75*
%MOMM*%
%FSLAX34Y34*%
%LPD*%
%IN*%
%IPPOS*%
%AMOC8*
5,1,8,0,0,1.08239X$1,22.5*%
G01*
G04 Define Apertures*
%ADD10C,0.254000*%
D10*
X0Y50000D02*
X190Y45642D01*
X760Y41318D01*
X1704Y37059D01*
X3015Y32899D01*
X4685Y28869D01*
X6699Y25000D01*
X9042Y21321D01*
X11698Y17861D01*
X14645Y14645D01*
X17861Y11698D01*
X21321Y9042D01*
X25000Y6699D01*
X28869Y4685D01*
X32899Y3015D01*
X37059Y1704D01*
X41318Y760D01*
X45642Y190D01*
X50000Y0D01*
X580100Y0D01*
X584458Y190D01*
X588782Y760D01*
X593041Y1704D01*
X597201Y3015D01*
X601231Y4685D01*
X605100Y6699D01*
X608779Y9042D01*
X612239Y11698D01*
X615455Y14645D01*
X618402Y17861D01*
X621058Y21321D01*
X623401Y25000D01*
X625415Y28869D01*
X627085Y32899D01*
X628396Y37059D01*
X629340Y41318D01*
X629910Y45642D01*
X630100Y50000D01*
X630100Y1000400D01*
X629910Y1004758D01*
X629340Y1009082D01*
X628396Y1013341D01*
X627085Y1017501D01*
X625415Y1021531D01*
X623401Y1025400D01*
X621058Y1029079D01*
X618402Y1032539D01*
X615455Y1035755D01*
X612239Y1038702D01*
X608779Y1041358D01*
X605100Y1043701D01*
X601231Y1045715D01*
X597201Y1047385D01*
X593041Y1048696D01*
X588782Y1049640D01*
X584458Y1050210D01*
X580100Y1050400D01*
X50000Y1050400D01*
X45642Y1050210D01*
X41318Y1049640D01*
X37059Y1048696D01*
X32899Y1047385D01*
X28869Y1045715D01*
X25000Y1043701D01*
X21321Y1041358D01*
X17861Y1038702D01*
X14645Y1035755D01*
X11698Y1032539D01*
X9042Y1029079D01*
X6699Y1025400D01*
X4685Y1021531D01*
X3015Y1017501D01*
X1704Y1013341D01*
X760Y1009082D01*
X190Y1004758D01*
X0Y1000400D01*
X0Y50000D01*
M02*
