G04 EAGLE Gerber RS-274X export*
G75*
%MOMM*%
%FSLAX34Y34*%
%LPD*%
%INSoldermask Top*%
%IPPOS*%
%AMOC8*
5,1,8,0,0,1.08239X$1,22.5*%
G01*
G04 Define Apertures*
%ADD10R,1.367800X1.668500*%
%ADD11R,0.965000X1.565000*%
%ADD12P,1.8695X8X292.5*%
%ADD13R,1.444200X1.444200*%
%ADD14C,1.444200*%
%ADD15C,3.505200*%
%ADD16R,1.234400X1.623400*%
%ADD17R,1.053200X0.483200*%
%ADD18C,3.519200*%
%ADD19C,1.631200*%
%ADD20R,1.631200X1.631200*%
%ADD21C,1.447800*%
%ADD22R,1.411200X1.411200*%
%ADD23C,1.411200*%
%ADD24C,0.959600*%
G36*
X285322Y791522D02*
X285322Y795278D01*
X294778Y795278D01*
X294778Y791522D01*
X285322Y791522D01*
G37*
G36*
X285322Y796522D02*
X285322Y800278D01*
X294778Y800278D01*
X294778Y796522D01*
X285322Y796522D01*
G37*
G36*
X285322Y801522D02*
X285322Y805278D01*
X294778Y805278D01*
X294778Y801522D01*
X285322Y801522D01*
G37*
G36*
X285322Y806522D02*
X285322Y810278D01*
X294778Y810278D01*
X294778Y806522D01*
X285322Y806522D01*
G37*
G36*
X285322Y811522D02*
X285322Y815278D01*
X294778Y815278D01*
X294778Y811522D01*
X285322Y811522D01*
G37*
G36*
X314822Y791522D02*
X314822Y795278D01*
X324278Y795278D01*
X324278Y791522D01*
X314822Y791522D01*
G37*
G36*
X314822Y796522D02*
X314822Y800278D01*
X324278Y800278D01*
X324278Y796522D01*
X314822Y796522D01*
G37*
G36*
X314822Y801522D02*
X314822Y805278D01*
X324278Y805278D01*
X324278Y801522D01*
X314822Y801522D01*
G37*
G36*
X314822Y806522D02*
X314822Y810278D01*
X324278Y810278D01*
X324278Y806522D01*
X314822Y806522D01*
G37*
G36*
X314822Y811522D02*
X314822Y815278D01*
X324278Y815278D01*
X324278Y811522D01*
X314822Y811522D01*
G37*
D10*
X318554Y861900D03*
X301046Y861900D03*
D11*
X370250Y190000D03*
X349750Y190000D03*
X370250Y150000D03*
X349750Y150000D03*
X370250Y110000D03*
X349750Y110000D03*
X370250Y70000D03*
X349750Y70000D03*
D12*
X547300Y576300D03*
X572700Y576300D03*
X547300Y550900D03*
X572700Y550900D03*
X547300Y525500D03*
X572700Y525500D03*
X547300Y500100D03*
X572700Y500100D03*
X547300Y474700D03*
X572700Y474700D03*
X547300Y449300D03*
X572700Y449300D03*
X547300Y423900D03*
X572700Y423900D03*
X547300Y398500D03*
X572700Y398500D03*
X547300Y373100D03*
X572700Y373100D03*
X547300Y347700D03*
X572700Y347700D03*
X547300Y322300D03*
X572700Y322300D03*
X547300Y296900D03*
X572700Y296900D03*
X547300Y271500D03*
X572700Y271500D03*
X547300Y246100D03*
X572700Y246100D03*
X547300Y220700D03*
X572700Y220700D03*
X547300Y195300D03*
X572700Y195300D03*
X547300Y169900D03*
X572700Y169900D03*
X547300Y144500D03*
X572700Y144500D03*
X547300Y119100D03*
X572700Y119100D03*
X547300Y93700D03*
X572700Y93700D03*
D13*
X264200Y641600D03*
D14*
X264200Y616200D03*
X264200Y590800D03*
X340400Y590800D03*
X340400Y616200D03*
X340400Y641600D03*
D15*
X560000Y625000D03*
X560000Y45000D03*
X70000Y625000D03*
X70000Y45000D03*
D16*
X289195Y190000D03*
X270805Y190000D03*
X289195Y150000D03*
X270805Y150000D03*
X289195Y110000D03*
X270805Y110000D03*
X289195Y70000D03*
X270805Y70000D03*
X209005Y641600D03*
X227395Y641600D03*
D17*
X319550Y793400D03*
X319550Y798400D03*
X319550Y803400D03*
X319550Y808400D03*
X319550Y813400D03*
X290050Y813400D03*
X290050Y808400D03*
X290050Y803400D03*
X290050Y798400D03*
X290050Y793400D03*
D13*
X261900Y505400D03*
D14*
X261900Y480000D03*
X261900Y454600D03*
X338100Y454600D03*
X338100Y480000D03*
X338100Y505400D03*
D16*
X215805Y507500D03*
X234195Y507500D03*
D18*
X516640Y831600D03*
X516640Y711200D03*
D19*
X469540Y783900D03*
X489540Y783900D03*
D20*
X469540Y758900D03*
D19*
X489540Y758900D03*
D18*
X516640Y1001160D03*
X516640Y880760D03*
D19*
X469540Y953460D03*
X489540Y953460D03*
D20*
X469540Y928460D03*
D19*
X489540Y928460D03*
D20*
X123460Y810960D03*
D19*
X123460Y835960D03*
X123460Y855960D03*
X123460Y880960D03*
D18*
X96360Y780260D03*
X96360Y911660D03*
D16*
X199195Y190000D03*
X180805Y190000D03*
X199195Y150000D03*
X180805Y150000D03*
X199195Y110000D03*
X180805Y110000D03*
X199195Y70000D03*
X180805Y70000D03*
D21*
X71383Y550000D03*
X71383Y535000D03*
X70000Y480000D03*
X70000Y465000D03*
X70000Y450000D03*
X70000Y390000D03*
X70000Y375000D03*
X70000Y330000D03*
X70000Y315000D03*
X70000Y270000D03*
X70000Y255000D03*
D22*
X70000Y200000D03*
D23*
X70000Y185000D03*
X70000Y170000D03*
X70000Y155000D03*
X70000Y140000D03*
X70000Y125000D03*
X70000Y110000D03*
D24*
X160000Y520000D03*
X250000Y819892D03*
X270000Y790000D03*
X290000Y830000D03*
X410000Y670000D03*
X510000Y650000D03*
X460000Y620000D03*
X240000Y790000D03*
X140000Y440000D03*
X390000Y430000D03*
X510000Y210000D03*
X440000Y250000D03*
X520000Y170000D03*
X500000Y190000D03*
M02*
