G04 EAGLE Gerber RS-274X export*
G75*
%MOMM*%
%FSLAX34Y34*%
%LPD*%
%INTop Copper*%
%IPPOS*%
%AMOC8*
5,1,8,0,0,1.08239X$1,22.5*%
G01*
G04 Define Apertures*
%ADD10R,0.761800X1.361800*%
%ADD11R,1.031200X1.420200*%
%ADD12C,1.508000*%
%ADD13C,1.950000*%
%ADD14R,2.100000X2.100000*%
%ADD15C,2.100000*%
%ADD16R,1.208000X1.208000*%
%ADD17C,1.208000*%
%ADD18C,0.152400*%
G36*
X355977Y10169D02*
X355858Y10160D01*
X34142Y10160D01*
X34023Y10169D01*
X26847Y11306D01*
X26621Y11380D01*
X20148Y14678D01*
X19955Y14818D01*
X14818Y19955D01*
X14678Y20148D01*
X11380Y26621D01*
X11306Y26847D01*
X10169Y34023D01*
X10160Y34142D01*
X10160Y385858D01*
X10169Y385977D01*
X11306Y393153D01*
X11380Y393379D01*
X14678Y399852D01*
X14818Y400045D01*
X19955Y405182D01*
X20148Y405322D01*
X26621Y408620D01*
X26847Y408694D01*
X34023Y409831D01*
X34142Y409840D01*
X241245Y409840D01*
X241508Y409793D01*
X241766Y409634D01*
X241942Y409386D01*
X242007Y409090D01*
X241951Y408792D01*
X241784Y408539D01*
X238955Y405710D01*
X237420Y402005D01*
X237420Y400762D01*
X257580Y400762D01*
X257580Y402005D01*
X256045Y405710D01*
X253216Y408539D01*
X253063Y408759D01*
X252993Y409054D01*
X253044Y409353D01*
X253208Y409608D01*
X253458Y409780D01*
X253755Y409840D01*
X288740Y409840D01*
X288997Y409795D01*
X289257Y409638D01*
X289434Y409392D01*
X289501Y409096D01*
X289448Y408798D01*
X289283Y408544D01*
X289031Y408374D01*
X287366Y407684D01*
X284816Y405134D01*
X283436Y401803D01*
X283436Y398197D01*
X284816Y394866D01*
X287366Y392316D01*
X290697Y390936D01*
X294303Y390936D01*
X297634Y392316D01*
X300184Y394866D01*
X301564Y398197D01*
X301564Y401803D01*
X300184Y405134D01*
X297634Y407684D01*
X295969Y408374D01*
X295748Y408514D01*
X295569Y408759D01*
X295499Y409054D01*
X295550Y409353D01*
X295713Y409608D01*
X295963Y409780D01*
X296260Y409840D01*
X355858Y409840D01*
X355977Y409831D01*
X363153Y408694D01*
X363379Y408620D01*
X369852Y405322D01*
X370045Y405182D01*
X375182Y400045D01*
X375322Y399852D01*
X378620Y393379D01*
X378694Y393153D01*
X379831Y385977D01*
X379840Y385858D01*
X379840Y34142D01*
X379831Y34023D01*
X378694Y26847D01*
X378620Y26621D01*
X375322Y20148D01*
X375182Y19955D01*
X370045Y14818D01*
X369852Y14678D01*
X363379Y11380D01*
X363153Y11306D01*
X355977Y10169D01*
G37*
%LPC*%
G36*
X346489Y353330D02*
X353511Y353330D01*
X360294Y355148D01*
X366376Y358659D01*
X371341Y363624D01*
X374853Y369706D01*
X376670Y376489D01*
X376670Y383511D01*
X374853Y390294D01*
X371341Y396376D01*
X366376Y401341D01*
X360294Y404853D01*
X353511Y406670D01*
X346489Y406670D01*
X339706Y404853D01*
X333624Y401341D01*
X328659Y396376D01*
X325148Y390294D01*
X323330Y383511D01*
X323330Y376489D01*
X325148Y369706D01*
X328659Y363624D01*
X333624Y358659D01*
X339706Y355148D01*
X346489Y353330D01*
G37*
G36*
X36489Y353330D02*
X43511Y353330D01*
X50294Y355148D01*
X56376Y358659D01*
X61341Y363624D01*
X64853Y369706D01*
X66670Y376489D01*
X66670Y383511D01*
X64853Y390294D01*
X61341Y396376D01*
X56376Y401341D01*
X50294Y404853D01*
X43511Y406670D01*
X36489Y406670D01*
X29706Y404853D01*
X23624Y401341D01*
X18659Y396376D01*
X15148Y390294D01*
X13330Y383511D01*
X13330Y376489D01*
X15148Y369706D01*
X18659Y363624D01*
X23624Y358659D01*
X29706Y355148D01*
X36489Y353330D01*
G37*
G36*
X248262Y389920D02*
X249505Y389920D01*
X253210Y391455D01*
X256045Y394290D01*
X257580Y397995D01*
X257580Y399238D01*
X248262Y399238D01*
X248262Y389920D01*
G37*
G36*
X245495Y389920D02*
X246738Y389920D01*
X246738Y399238D01*
X237420Y399238D01*
X237420Y397995D01*
X238955Y394290D01*
X241790Y391455D01*
X245495Y389920D01*
G37*
G36*
X302757Y363726D02*
X307243Y363726D01*
X311386Y365442D01*
X314558Y368614D01*
X316274Y372757D01*
X316274Y377243D01*
X314558Y381386D01*
X311386Y384558D01*
X307243Y386274D01*
X302757Y386274D01*
X298614Y384558D01*
X295442Y381386D01*
X293726Y377243D01*
X293726Y372757D01*
X295442Y368614D01*
X298614Y365442D01*
X302757Y363726D01*
G37*
G36*
X232757Y363726D02*
X237243Y363726D01*
X241386Y365442D01*
X244558Y368614D01*
X246274Y372757D01*
X246274Y377243D01*
X244558Y381386D01*
X241386Y384558D01*
X237243Y386274D01*
X232757Y386274D01*
X228614Y384558D01*
X225442Y381386D01*
X223726Y377243D01*
X223726Y372757D01*
X225442Y368614D01*
X228614Y365442D01*
X232757Y363726D01*
G37*
G36*
X200108Y342976D02*
X204892Y342976D01*
X209311Y344807D01*
X212693Y348189D01*
X214524Y352608D01*
X214524Y357392D01*
X212693Y361811D01*
X209311Y365193D01*
X204892Y367024D01*
X200108Y367024D01*
X195689Y365193D01*
X192307Y361811D01*
X190476Y357392D01*
X190476Y352608D01*
X192307Y348189D01*
X195689Y344807D01*
X200108Y342976D01*
G37*
G36*
X66369Y342976D02*
X88631Y342976D01*
X89524Y343869D01*
X89524Y366131D01*
X88631Y367024D01*
X66369Y367024D01*
X65476Y366131D01*
X65476Y343869D01*
X66369Y342976D01*
G37*
G36*
X189460Y305762D02*
X201738Y305762D01*
X201738Y318040D01*
X199906Y318040D01*
X195113Y316055D01*
X191445Y312387D01*
X189460Y307594D01*
X189460Y305762D01*
G37*
G36*
X64460Y305762D02*
X76738Y305762D01*
X76738Y318040D01*
X74906Y318040D01*
X70113Y316055D01*
X66445Y312387D01*
X64460Y307594D01*
X64460Y305762D01*
G37*
G36*
X78262Y305762D02*
X90540Y305762D01*
X90540Y307594D01*
X88555Y312387D01*
X84887Y316055D01*
X80094Y318040D01*
X78262Y318040D01*
X78262Y305762D01*
G37*
G36*
X203262Y305762D02*
X215540Y305762D01*
X215540Y307594D01*
X213555Y312387D01*
X209887Y316055D01*
X205094Y318040D01*
X203262Y318040D01*
X203262Y305762D01*
G37*
G36*
X203262Y291960D02*
X205094Y291960D01*
X209887Y293945D01*
X213555Y297613D01*
X215540Y302406D01*
X215540Y304238D01*
X203262Y304238D01*
X203262Y291960D01*
G37*
G36*
X199906Y291960D02*
X201738Y291960D01*
X201738Y304238D01*
X189460Y304238D01*
X189460Y302406D01*
X191445Y297613D01*
X195113Y293945D01*
X199906Y291960D01*
G37*
G36*
X78262Y291960D02*
X80094Y291960D01*
X84887Y293945D01*
X88555Y297613D01*
X90540Y302406D01*
X90540Y304238D01*
X78262Y304238D01*
X78262Y291960D01*
G37*
G36*
X74906Y291960D02*
X76738Y291960D01*
X76738Y304238D01*
X64460Y304238D01*
X64460Y302406D01*
X66445Y297613D01*
X70113Y293945D01*
X74906Y291960D01*
G37*
G36*
X203901Y230762D02*
X209488Y230762D01*
X209488Y239349D01*
X205389Y239349D01*
X203901Y237861D01*
X203901Y230762D01*
G37*
G36*
X211012Y230762D02*
X216599Y230762D01*
X216599Y237861D01*
X215111Y239349D01*
X211012Y239349D01*
X211012Y230762D01*
G37*
G36*
X153408Y221375D02*
X164982Y221375D01*
X165875Y222268D01*
X165875Y226952D01*
X165926Y227227D01*
X166090Y227482D01*
X166340Y227654D01*
X166637Y227714D01*
X183655Y227714D01*
X183930Y227663D01*
X184185Y227499D01*
X184357Y227249D01*
X184417Y226952D01*
X184417Y222560D01*
X185310Y221667D01*
X194190Y221667D01*
X195083Y222560D01*
X195083Y237440D01*
X194190Y238333D01*
X185310Y238333D01*
X184417Y237440D01*
X184417Y233048D01*
X184366Y232773D01*
X184202Y232518D01*
X183952Y232346D01*
X183655Y232286D01*
X166637Y232286D01*
X166362Y232337D01*
X166107Y232501D01*
X165935Y232751D01*
X165875Y233048D01*
X165875Y237732D01*
X164982Y238625D01*
X153408Y238625D01*
X152515Y237732D01*
X152515Y222268D01*
X153408Y221375D01*
G37*
G36*
X150762Y41420D02*
X157092Y41420D01*
X158580Y42908D01*
X158580Y43883D01*
X158627Y44147D01*
X158786Y44405D01*
X159034Y44580D01*
X159330Y44645D01*
X159628Y44590D01*
X159881Y44422D01*
X160715Y43588D01*
X163495Y42436D01*
X166505Y42436D01*
X169285Y43588D01*
X171412Y45715D01*
X171796Y46641D01*
X171940Y46867D01*
X172186Y47044D01*
X172482Y47112D01*
X172780Y47058D01*
X173035Y46893D01*
X173204Y46641D01*
X173588Y45715D01*
X175715Y43588D01*
X178495Y42436D01*
X181505Y42436D01*
X184285Y43588D01*
X186412Y45715D01*
X186796Y46641D01*
X186940Y46867D01*
X187186Y47044D01*
X187482Y47112D01*
X187780Y47058D01*
X188035Y46893D01*
X188204Y46641D01*
X188588Y45715D01*
X190715Y43588D01*
X193495Y42436D01*
X196505Y42436D01*
X199285Y43588D01*
X201412Y45715D01*
X201796Y46641D01*
X201940Y46867D01*
X202186Y47044D01*
X202482Y47112D01*
X202780Y47058D01*
X203035Y46893D01*
X203204Y46641D01*
X203588Y45715D01*
X205715Y43588D01*
X208495Y42436D01*
X211505Y42436D01*
X214285Y43588D01*
X216412Y45715D01*
X216796Y46641D01*
X216940Y46867D01*
X217186Y47044D01*
X217482Y47112D01*
X217780Y47058D01*
X218035Y46893D01*
X218204Y46641D01*
X218588Y45715D01*
X220715Y43588D01*
X223495Y42436D01*
X226505Y42436D01*
X229285Y43588D01*
X231412Y45715D01*
X231796Y46641D01*
X231940Y46867D01*
X232186Y47044D01*
X232482Y47112D01*
X232780Y47058D01*
X233035Y46893D01*
X233204Y46641D01*
X233588Y45715D01*
X235715Y43588D01*
X238495Y42436D01*
X241505Y42436D01*
X244285Y43588D01*
X246412Y45715D01*
X247564Y48495D01*
X247564Y51505D01*
X246412Y54285D01*
X244285Y56412D01*
X242756Y57045D01*
X242518Y57202D01*
X242346Y57452D01*
X242286Y57749D01*
X242286Y60947D01*
X205947Y97286D01*
X147068Y97286D01*
X146782Y97342D01*
X146529Y97509D01*
X143964Y100074D01*
X143811Y100294D01*
X143741Y100589D01*
X143792Y100888D01*
X143955Y101143D01*
X144205Y101315D01*
X144503Y101375D01*
X146592Y101375D01*
X147485Y102268D01*
X147485Y117732D01*
X146592Y118625D01*
X135018Y118625D01*
X134125Y117732D01*
X134125Y102268D01*
X135018Y101375D01*
X137757Y101375D01*
X138032Y101324D01*
X138287Y101160D01*
X138459Y100910D01*
X138519Y100613D01*
X138519Y99053D01*
X144858Y92714D01*
X203737Y92714D01*
X204023Y92658D01*
X204276Y92491D01*
X237491Y59276D01*
X237654Y59035D01*
X237714Y58737D01*
X237714Y57749D01*
X237661Y57469D01*
X237495Y57215D01*
X237244Y57045D01*
X235715Y56412D01*
X233588Y54285D01*
X233204Y53359D01*
X233060Y53133D01*
X232814Y52956D01*
X232518Y52889D01*
X232220Y52942D01*
X231966Y53107D01*
X231796Y53359D01*
X231412Y54285D01*
X229285Y56412D01*
X227756Y57045D01*
X227518Y57202D01*
X227346Y57452D01*
X227286Y57749D01*
X227286Y60947D01*
X200947Y87286D01*
X136263Y87286D01*
X135977Y87342D01*
X135724Y87509D01*
X122509Y100724D01*
X122346Y100965D01*
X122286Y101263D01*
X122286Y128737D01*
X122342Y129023D01*
X122509Y129276D01*
X134385Y141152D01*
X134626Y141315D01*
X134924Y141375D01*
X146592Y141375D01*
X147485Y142268D01*
X147485Y157732D01*
X146592Y158625D01*
X135018Y158625D01*
X134125Y157732D01*
X134125Y147674D01*
X134069Y147388D01*
X133902Y147135D01*
X117714Y130947D01*
X117714Y99053D01*
X134053Y82714D01*
X198737Y82714D01*
X199023Y82658D01*
X199276Y82491D01*
X222491Y59276D01*
X222654Y59035D01*
X222714Y58737D01*
X222714Y57749D01*
X222661Y57469D01*
X222495Y57215D01*
X222244Y57045D01*
X220715Y56412D01*
X218588Y54285D01*
X218204Y53359D01*
X218060Y53133D01*
X217814Y52956D01*
X217518Y52889D01*
X217220Y52942D01*
X216966Y53107D01*
X216796Y53359D01*
X216412Y54285D01*
X214285Y56412D01*
X212756Y57045D01*
X212518Y57202D01*
X212346Y57452D01*
X212286Y57749D01*
X212286Y60947D01*
X195947Y77286D01*
X126263Y77286D01*
X125977Y77342D01*
X125724Y77509D01*
X112509Y90724D01*
X112346Y90965D01*
X112286Y91263D01*
X112286Y168737D01*
X112342Y169023D01*
X112509Y169276D01*
X130724Y187491D01*
X130965Y187654D01*
X131263Y187714D01*
X133363Y187714D01*
X133638Y187663D01*
X133893Y187499D01*
X134065Y187249D01*
X134125Y186952D01*
X134125Y182268D01*
X135018Y181375D01*
X146592Y181375D01*
X147485Y182268D01*
X147485Y197732D01*
X146592Y198625D01*
X135018Y198625D01*
X134125Y197732D01*
X134125Y193048D01*
X134074Y192773D01*
X133910Y192518D01*
X133660Y192346D01*
X133363Y192286D01*
X129053Y192286D01*
X107714Y170947D01*
X107714Y89053D01*
X123180Y73587D01*
X123333Y73367D01*
X123403Y73072D01*
X123352Y72773D01*
X123189Y72518D01*
X122939Y72346D01*
X122641Y72286D01*
X116263Y72286D01*
X115977Y72342D01*
X115724Y72509D01*
X102509Y85724D01*
X102346Y85965D01*
X102286Y86263D01*
X102286Y208737D01*
X102342Y209023D01*
X102509Y209276D01*
X120724Y227491D01*
X120965Y227654D01*
X121263Y227714D01*
X133363Y227714D01*
X133638Y227663D01*
X133893Y227499D01*
X134065Y227249D01*
X134125Y226952D01*
X134125Y222268D01*
X135018Y221375D01*
X146592Y221375D01*
X147485Y222268D01*
X147485Y237732D01*
X146592Y238625D01*
X135018Y238625D01*
X134125Y237732D01*
X134125Y233048D01*
X134074Y232773D01*
X133910Y232518D01*
X133660Y232346D01*
X133363Y232286D01*
X119053Y232286D01*
X97714Y210947D01*
X97714Y84053D01*
X114053Y67714D01*
X188737Y67714D01*
X189023Y67658D01*
X189276Y67491D01*
X192491Y64276D01*
X192654Y64035D01*
X192714Y63737D01*
X192714Y57749D01*
X192661Y57469D01*
X192495Y57215D01*
X192244Y57045D01*
X190715Y56412D01*
X188588Y54285D01*
X188204Y53359D01*
X188060Y53133D01*
X187814Y52956D01*
X187518Y52889D01*
X187220Y52942D01*
X186966Y53107D01*
X186796Y53359D01*
X186412Y54285D01*
X184285Y56412D01*
X181505Y57564D01*
X178495Y57564D01*
X175715Y56412D01*
X173588Y54285D01*
X173204Y53359D01*
X173060Y53133D01*
X172814Y52956D01*
X172518Y52889D01*
X172220Y52942D01*
X171966Y53107D01*
X171796Y53359D01*
X171412Y54285D01*
X169285Y56412D01*
X166505Y57564D01*
X163495Y57564D01*
X160715Y56412D01*
X159881Y55578D01*
X159661Y55425D01*
X159366Y55355D01*
X159067Y55406D01*
X158812Y55569D01*
X158640Y55820D01*
X158580Y56117D01*
X158580Y57092D01*
X157092Y58580D01*
X150762Y58580D01*
X150762Y41420D01*
G37*
G36*
X205389Y220651D02*
X209488Y220651D01*
X209488Y229238D01*
X203901Y229238D01*
X203901Y222139D01*
X205389Y220651D01*
G37*
G36*
X211012Y220651D02*
X215111Y220651D01*
X216599Y222139D01*
X216599Y229238D01*
X211012Y229238D01*
X211012Y220651D01*
G37*
G36*
X211012Y190762D02*
X216599Y190762D01*
X216599Y197861D01*
X215111Y199349D01*
X211012Y199349D01*
X211012Y190762D01*
G37*
G36*
X203901Y190762D02*
X209488Y190762D01*
X209488Y199349D01*
X205389Y199349D01*
X203901Y197861D01*
X203901Y190762D01*
G37*
G36*
X153408Y181375D02*
X164982Y181375D01*
X165875Y182268D01*
X165875Y186952D01*
X165926Y187227D01*
X166090Y187482D01*
X166340Y187654D01*
X166637Y187714D01*
X183655Y187714D01*
X183930Y187663D01*
X184185Y187499D01*
X184357Y187249D01*
X184417Y186952D01*
X184417Y182560D01*
X185310Y181667D01*
X194190Y181667D01*
X195083Y182560D01*
X195083Y197440D01*
X194190Y198333D01*
X185310Y198333D01*
X184417Y197440D01*
X184417Y193048D01*
X184366Y192773D01*
X184202Y192518D01*
X183952Y192346D01*
X183655Y192286D01*
X166637Y192286D01*
X166362Y192337D01*
X166107Y192501D01*
X165935Y192751D01*
X165875Y193048D01*
X165875Y197732D01*
X164982Y198625D01*
X153408Y198625D01*
X152515Y197732D01*
X152515Y182268D01*
X153408Y181375D01*
G37*
G36*
X205389Y180651D02*
X209488Y180651D01*
X209488Y189238D01*
X203901Y189238D01*
X203901Y182139D01*
X205389Y180651D01*
G37*
G36*
X211012Y180651D02*
X215111Y180651D01*
X216599Y182139D01*
X216599Y189238D01*
X211012Y189238D01*
X211012Y180651D01*
G37*
G36*
X203901Y150762D02*
X209488Y150762D01*
X209488Y159349D01*
X205389Y159349D01*
X203901Y157861D01*
X203901Y150762D01*
G37*
G36*
X211012Y150762D02*
X216599Y150762D01*
X216599Y157861D01*
X215111Y159349D01*
X211012Y159349D01*
X211012Y150762D01*
G37*
G36*
X153408Y141375D02*
X164982Y141375D01*
X165875Y142268D01*
X165875Y146952D01*
X165926Y147227D01*
X166090Y147482D01*
X166340Y147654D01*
X166637Y147714D01*
X183655Y147714D01*
X183930Y147663D01*
X184185Y147499D01*
X184357Y147249D01*
X184417Y146952D01*
X184417Y142560D01*
X185310Y141667D01*
X194190Y141667D01*
X195083Y142560D01*
X195083Y157440D01*
X194190Y158333D01*
X185310Y158333D01*
X184417Y157440D01*
X184417Y153048D01*
X184366Y152773D01*
X184202Y152518D01*
X183952Y152346D01*
X183655Y152286D01*
X166637Y152286D01*
X166362Y152337D01*
X166107Y152501D01*
X165935Y152751D01*
X165875Y153048D01*
X165875Y157732D01*
X164982Y158625D01*
X153408Y158625D01*
X152515Y157732D01*
X152515Y142268D01*
X153408Y141375D01*
G37*
G36*
X211012Y140651D02*
X215111Y140651D01*
X216599Y142139D01*
X216599Y149238D01*
X211012Y149238D01*
X211012Y140651D01*
G37*
G36*
X205389Y140651D02*
X209488Y140651D01*
X209488Y149238D01*
X203901Y149238D01*
X203901Y142139D01*
X205389Y140651D01*
G37*
G36*
X203901Y110762D02*
X209488Y110762D01*
X209488Y119349D01*
X205389Y119349D01*
X203901Y117861D01*
X203901Y110762D01*
G37*
G36*
X211012Y110762D02*
X216599Y110762D01*
X216599Y117861D01*
X215111Y119349D01*
X211012Y119349D01*
X211012Y110762D01*
G37*
G36*
X153408Y101375D02*
X164982Y101375D01*
X165875Y102268D01*
X165875Y106952D01*
X165926Y107227D01*
X166090Y107482D01*
X166340Y107654D01*
X166637Y107714D01*
X183655Y107714D01*
X183930Y107663D01*
X184185Y107499D01*
X184357Y107249D01*
X184417Y106952D01*
X184417Y102560D01*
X185310Y101667D01*
X194190Y101667D01*
X195083Y102560D01*
X195083Y117440D01*
X194190Y118333D01*
X185310Y118333D01*
X184417Y117440D01*
X184417Y113048D01*
X184366Y112773D01*
X184202Y112518D01*
X183952Y112346D01*
X183655Y112286D01*
X166637Y112286D01*
X166362Y112337D01*
X166107Y112501D01*
X165935Y112751D01*
X165875Y113048D01*
X165875Y117732D01*
X164982Y118625D01*
X153408Y118625D01*
X152515Y117732D01*
X152515Y102268D01*
X153408Y101375D01*
G37*
G36*
X205389Y100651D02*
X209488Y100651D01*
X209488Y109238D01*
X203901Y109238D01*
X203901Y102139D01*
X205389Y100651D01*
G37*
G36*
X211012Y100651D02*
X215111Y100651D01*
X216599Y102139D01*
X216599Y109238D01*
X211012Y109238D01*
X211012Y100651D01*
G37*
G36*
X346489Y13330D02*
X353511Y13330D01*
X360294Y15148D01*
X366376Y18659D01*
X371341Y23624D01*
X374853Y29706D01*
X376670Y36489D01*
X376670Y43511D01*
X374853Y50294D01*
X371341Y56376D01*
X366376Y61341D01*
X360294Y64853D01*
X353511Y66670D01*
X346489Y66670D01*
X339706Y64853D01*
X333624Y61341D01*
X328659Y56376D01*
X325148Y50294D01*
X323330Y43511D01*
X323330Y36489D01*
X325148Y29706D01*
X328659Y23624D01*
X333624Y18659D01*
X339706Y15148D01*
X346489Y13330D01*
G37*
G36*
X36489Y13330D02*
X43511Y13330D01*
X50294Y15148D01*
X56376Y18659D01*
X61341Y23624D01*
X64853Y29706D01*
X66670Y36489D01*
X66670Y43511D01*
X64853Y50294D01*
X61341Y56376D01*
X56376Y61341D01*
X50294Y64853D01*
X43511Y66670D01*
X36489Y66670D01*
X29706Y64853D01*
X23624Y61341D01*
X18659Y56376D01*
X15148Y50294D01*
X13330Y43511D01*
X13330Y36489D01*
X15148Y29706D01*
X18659Y23624D01*
X23624Y18659D01*
X29706Y15148D01*
X36489Y13330D01*
G37*
G36*
X141420Y50762D02*
X149238Y50762D01*
X149238Y58580D01*
X142908Y58580D01*
X141420Y57092D01*
X141420Y50762D01*
G37*
G36*
X142908Y41420D02*
X149238Y41420D01*
X149238Y49238D01*
X141420Y49238D01*
X141420Y42908D01*
X142908Y41420D01*
G37*
%LPD*%
D10*
X210250Y230000D03*
X189750Y230000D03*
X210250Y190000D03*
X189750Y190000D03*
X210250Y150000D03*
X189750Y150000D03*
X210250Y110000D03*
X189750Y110000D03*
D11*
X159195Y230000D03*
X140805Y230000D03*
X159195Y190000D03*
X140805Y190000D03*
X159195Y150000D03*
X140805Y150000D03*
X159195Y110000D03*
X140805Y110000D03*
D12*
X292500Y400000D03*
X247500Y400000D03*
D13*
X305000Y375000D03*
X235000Y375000D03*
D14*
X77500Y355000D03*
D15*
X202500Y355000D03*
X77500Y305000D03*
X202500Y305000D03*
D16*
X150000Y50000D03*
D17*
X165000Y50000D03*
X180000Y50000D03*
X195000Y50000D03*
X210000Y50000D03*
X225000Y50000D03*
X240000Y50000D03*
D18*
X195000Y50000D02*
X195000Y65000D01*
X190000Y70000D01*
X115000Y70000D01*
X100000Y85000D01*
X100000Y210000D01*
X120000Y230000D01*
X140805Y230000D01*
X210000Y60000D02*
X210000Y50000D01*
X210000Y60000D02*
X195000Y75000D01*
X125000Y75000D01*
X110000Y90000D01*
X110000Y170000D01*
X130000Y190000D01*
X140805Y190000D01*
X225000Y60000D02*
X225000Y50000D01*
X225000Y60000D02*
X200000Y85000D01*
X135000Y85000D01*
X120000Y100000D01*
X120000Y130000D01*
X140000Y150000D01*
X140805Y150000D01*
X240000Y60000D02*
X240000Y50000D01*
X240000Y60000D02*
X205000Y95000D01*
X145805Y95000D01*
X140805Y100000D01*
X140805Y110000D01*
X159195Y230000D02*
X189750Y230000D01*
X189750Y190000D02*
X159195Y190000D01*
X159195Y150000D02*
X189750Y150000D01*
X189750Y110000D02*
X159195Y110000D01*
M02*
