G04 EAGLE Gerber RS-274X export*
G75*
%MOMM*%
%FSLAX34Y34*%
%LPD*%
%IN*%
%IPPOS*%
%AMOC8*
5,1,8,0,0,1.08239X$1,22.5*%
G01*
G04 Define Apertures*
%ADD10C,0.254000*%
D10*
X0Y34142D02*
X130Y31166D01*
X519Y28213D01*
X1163Y25305D01*
X2059Y22465D01*
X3199Y19713D01*
X4574Y17071D01*
X6175Y14559D01*
X7988Y12196D01*
X10000Y10000D01*
X12196Y7988D01*
X14559Y6175D01*
X17071Y4574D01*
X19713Y3199D01*
X22465Y2059D01*
X25305Y1163D01*
X28213Y519D01*
X31166Y130D01*
X34142Y0D01*
X355858Y0D01*
X358834Y130D01*
X361787Y519D01*
X364695Y1163D01*
X367535Y2059D01*
X370287Y3199D01*
X372929Y4574D01*
X375441Y6175D01*
X377804Y7988D01*
X380000Y10000D01*
X382012Y12196D01*
X383825Y14559D01*
X385426Y17071D01*
X386801Y19713D01*
X387941Y22465D01*
X388837Y25305D01*
X389481Y28213D01*
X389870Y31166D01*
X390000Y34142D01*
X390000Y385858D01*
X389870Y388834D01*
X389481Y391787D01*
X388837Y394695D01*
X387941Y397535D01*
X386801Y400287D01*
X385426Y402929D01*
X383825Y405441D01*
X382012Y407804D01*
X380000Y410000D01*
X377804Y412012D01*
X375441Y413825D01*
X372929Y415426D01*
X370287Y416801D01*
X367535Y417941D01*
X364695Y418837D01*
X361787Y419481D01*
X358834Y419870D01*
X355858Y420000D01*
X34142Y420000D01*
X31166Y419870D01*
X28213Y419481D01*
X25305Y418837D01*
X22465Y417941D01*
X19713Y416801D01*
X17071Y415426D01*
X14559Y413825D01*
X12196Y412012D01*
X10000Y410000D01*
X7988Y407804D01*
X6175Y405441D01*
X4574Y402929D01*
X3199Y400287D01*
X2059Y397535D01*
X1163Y394695D01*
X519Y391787D01*
X130Y388834D01*
X0Y385858D01*
X0Y34142D01*
M02*
