G04 EAGLE Gerber RS-274X export*
G75*
%MOMM*%
%FSLAX34Y34*%
%LPD*%
%INSilkscreen Bottom*%
%IPPOS*%
%AMOC8*
5,1,8,0,0,1.08239X$1,22.5*%
G01*
G04 Define Apertures*
%ADD10C,0.127000*%
G36*
X101247Y250000D02*
X96237Y250000D01*
X95718Y250014D01*
X95227Y250057D01*
X94766Y250129D01*
X94335Y250229D01*
X93932Y250358D01*
X93559Y250515D01*
X93215Y250701D01*
X92900Y250915D01*
X92619Y251156D01*
X92375Y251419D01*
X92169Y251705D01*
X92001Y252013D01*
X91869Y252345D01*
X91776Y252700D01*
X91719Y253077D01*
X91701Y253477D01*
X91713Y253779D01*
X91750Y254068D01*
X91813Y254344D01*
X91900Y254606D01*
X92012Y254855D01*
X92149Y255091D01*
X92311Y255313D01*
X92498Y255522D01*
X92611Y255626D01*
X92707Y255715D01*
X92938Y255888D01*
X93190Y256041D01*
X93463Y256174D01*
X93757Y256287D01*
X94072Y256380D01*
X94409Y256454D01*
X94766Y256508D01*
X94494Y256579D01*
X94237Y256665D01*
X93997Y256767D01*
X93772Y256884D01*
X93563Y257017D01*
X93370Y257164D01*
X93292Y257236D01*
X93193Y257328D01*
X93032Y257506D01*
X92888Y257698D01*
X92764Y257900D01*
X92658Y258114D01*
X92572Y258338D01*
X92505Y258574D01*
X92457Y258820D01*
X92428Y259077D01*
X92419Y259345D01*
X92436Y259708D01*
X92487Y260047D01*
X92571Y260363D01*
X92690Y260656D01*
X92843Y260925D01*
X93030Y261171D01*
X93250Y261393D01*
X93505Y261592D01*
X93793Y261767D01*
X94116Y261920D01*
X94472Y262048D01*
X94862Y262154D01*
X95287Y262235D01*
X95745Y262294D01*
X96237Y262329D01*
X96763Y262341D01*
X101247Y262341D01*
X101247Y250000D01*
G37*
%LPC*%
G36*
X99574Y251340D02*
X99574Y255789D01*
X96456Y255789D01*
X96085Y255781D01*
X95738Y255755D01*
X95415Y255713D01*
X95115Y255653D01*
X94840Y255576D01*
X94588Y255483D01*
X94361Y255372D01*
X94157Y255244D01*
X93978Y255099D01*
X93822Y254937D01*
X93690Y254759D01*
X93583Y254563D01*
X93499Y254350D01*
X93439Y254120D01*
X93403Y253873D01*
X93391Y253609D01*
X93402Y253335D01*
X93435Y253079D01*
X93489Y252840D01*
X93566Y252619D01*
X93665Y252415D01*
X93785Y252229D01*
X93927Y252060D01*
X94092Y251909D01*
X94280Y251776D01*
X94494Y251660D01*
X94734Y251562D01*
X95000Y251482D01*
X95292Y251420D01*
X95611Y251376D01*
X95955Y251349D01*
X96325Y251340D01*
X99574Y251340D01*
G37*
G36*
X99574Y257094D02*
X99574Y261001D01*
X96763Y261001D01*
X96448Y260994D01*
X96153Y260974D01*
X95877Y260940D01*
X95620Y260893D01*
X95382Y260833D01*
X95163Y260759D01*
X94964Y260672D01*
X94784Y260572D01*
X94623Y260455D01*
X94485Y260321D01*
X94367Y260170D01*
X94271Y260000D01*
X94196Y259813D01*
X94143Y259608D01*
X94111Y259385D01*
X94100Y259144D01*
X94111Y258892D01*
X94142Y258656D01*
X94193Y258438D01*
X94266Y258236D01*
X94359Y258051D01*
X94472Y257884D01*
X94607Y257732D01*
X94762Y257598D01*
X94938Y257480D01*
X95135Y257378D01*
X95353Y257291D01*
X95593Y257220D01*
X95853Y257165D01*
X96135Y257126D01*
X96439Y257102D01*
X96763Y257094D01*
X99574Y257094D01*
G37*
%LPD*%
G36*
X270010Y246278D02*
X268434Y246278D01*
X268434Y249983D01*
X268442Y251064D01*
X268453Y251352D01*
X268469Y251471D01*
X268425Y251471D01*
X268325Y251272D01*
X268214Y251086D01*
X268092Y250912D01*
X267958Y250751D01*
X267814Y250603D01*
X267658Y250468D01*
X267491Y250346D01*
X267312Y250236D01*
X267123Y250140D01*
X266922Y250056D01*
X266710Y249986D01*
X266487Y249928D01*
X266253Y249883D01*
X266007Y249851D01*
X265750Y249831D01*
X265482Y249825D01*
X265060Y249844D01*
X264665Y249902D01*
X264297Y249999D01*
X263957Y250135D01*
X263644Y250309D01*
X263358Y250522D01*
X263099Y250774D01*
X262868Y251064D01*
X262663Y251393D01*
X262486Y251761D01*
X262336Y252168D01*
X262214Y252613D01*
X262119Y253097D01*
X262051Y253620D01*
X262010Y254182D01*
X261996Y254782D01*
X262010Y255390D01*
X262050Y255955D01*
X262118Y256479D01*
X262213Y256961D01*
X262335Y257401D01*
X262484Y257799D01*
X262660Y258155D01*
X262863Y258470D01*
X263094Y258745D01*
X263352Y258983D01*
X263638Y259185D01*
X263951Y259350D01*
X264293Y259478D01*
X264661Y259570D01*
X265058Y259625D01*
X265482Y259643D01*
X265758Y259637D01*
X266019Y259618D01*
X266268Y259586D01*
X266502Y259541D01*
X266723Y259484D01*
X266930Y259414D01*
X267124Y259331D01*
X267304Y259236D01*
X267472Y259127D01*
X267633Y259003D01*
X267928Y258711D01*
X268189Y258361D01*
X268416Y257953D01*
X268451Y257953D01*
X268473Y258566D01*
X268512Y259227D01*
X268539Y259477D01*
X270063Y259477D01*
X270040Y259178D01*
X270023Y258756D01*
X270010Y257541D01*
X270010Y246278D01*
G37*
%LPC*%
G36*
X265902Y250990D02*
X266226Y251004D01*
X266526Y251045D01*
X266803Y251114D01*
X267056Y251211D01*
X267287Y251335D01*
X267494Y251487D01*
X267677Y251667D01*
X267838Y251874D01*
X267978Y252111D01*
X268099Y252378D01*
X268201Y252676D01*
X268285Y253004D01*
X268350Y253363D01*
X268396Y253753D01*
X268424Y254173D01*
X268434Y254625D01*
X268416Y255263D01*
X268365Y255839D01*
X268278Y256351D01*
X268158Y256801D01*
X268004Y257192D01*
X267818Y257527D01*
X267601Y257807D01*
X267352Y258032D01*
X267213Y258124D01*
X267061Y258204D01*
X266897Y258272D01*
X266720Y258327D01*
X266530Y258370D01*
X266328Y258401D01*
X266113Y258420D01*
X265885Y258426D01*
X265603Y258412D01*
X265342Y258373D01*
X265100Y258306D01*
X264878Y258213D01*
X264675Y258094D01*
X264492Y257948D01*
X264329Y257775D01*
X264186Y257576D01*
X264060Y257346D01*
X263952Y257081D01*
X263860Y256780D01*
X263785Y256444D01*
X263727Y256073D01*
X263685Y255666D01*
X263660Y255224D01*
X263651Y254747D01*
X263660Y254257D01*
X263685Y253804D01*
X263727Y253388D01*
X263786Y253007D01*
X263862Y252664D01*
X263954Y252357D01*
X264064Y252086D01*
X264190Y251852D01*
X264335Y251650D01*
X264499Y251475D01*
X264683Y251327D01*
X264887Y251205D01*
X265111Y251111D01*
X265355Y251044D01*
X265619Y251003D01*
X265902Y250990D01*
G37*
%LPD*%
G36*
X60605Y249825D02*
X60343Y249831D01*
X60092Y249849D01*
X59852Y249880D01*
X59623Y249923D01*
X59404Y249979D01*
X59196Y250047D01*
X59000Y250127D01*
X58814Y250219D01*
X58637Y250326D01*
X58470Y250448D01*
X58312Y250587D01*
X58162Y250742D01*
X58021Y250913D01*
X57890Y251101D01*
X57653Y251524D01*
X57618Y251524D01*
X57610Y251121D01*
X57587Y250648D01*
X57558Y250232D01*
X57530Y250000D01*
X56024Y250000D01*
X56047Y250299D01*
X56063Y250725D01*
X56076Y251953D01*
X56076Y262998D01*
X57653Y262998D01*
X57653Y259065D01*
X57635Y258005D01*
X57653Y258005D01*
X57889Y258405D01*
X58161Y258748D01*
X58310Y258897D01*
X58468Y259032D01*
X58634Y259152D01*
X58809Y259258D01*
X58994Y259350D01*
X59191Y259430D01*
X59398Y259498D01*
X59617Y259553D01*
X59847Y259596D01*
X60088Y259627D01*
X60341Y259646D01*
X60605Y259652D01*
X61027Y259633D01*
X61422Y259574D01*
X61789Y259478D01*
X62130Y259342D01*
X62443Y259168D01*
X62729Y258955D01*
X62988Y258703D01*
X63219Y258413D01*
X63423Y258083D01*
X63600Y257715D01*
X63750Y257309D01*
X63873Y256863D01*
X63968Y256379D01*
X64036Y255856D01*
X64077Y255295D01*
X64091Y254695D01*
X64077Y254101D01*
X64038Y253546D01*
X63972Y253030D01*
X63879Y252553D01*
X63760Y252115D01*
X63615Y251716D01*
X63443Y251355D01*
X63245Y251034D01*
X63019Y250750D01*
X62763Y250505D01*
X62478Y250297D01*
X62163Y250127D01*
X61818Y249995D01*
X61443Y249900D01*
X61039Y249844D01*
X60605Y249825D01*
G37*
%LPC*%
G36*
X60202Y251042D02*
X60487Y251056D01*
X60752Y251096D01*
X60996Y251163D01*
X61220Y251257D01*
X61423Y251378D01*
X61606Y251525D01*
X61768Y251699D01*
X61910Y251901D01*
X62033Y252133D01*
X62140Y252400D01*
X62230Y252703D01*
X62304Y253041D01*
X62361Y253415D01*
X62402Y253824D01*
X62427Y254268D01*
X62435Y254747D01*
X62427Y255225D01*
X62402Y255668D01*
X62361Y256077D01*
X62303Y256452D01*
X62228Y256792D01*
X62137Y257098D01*
X62029Y257370D01*
X61905Y257607D01*
X61762Y257813D01*
X61599Y257992D01*
X61415Y258143D01*
X61210Y258267D01*
X60985Y258363D01*
X60738Y258432D01*
X60472Y258473D01*
X60184Y258487D01*
X59865Y258473D01*
X59568Y258432D01*
X59293Y258364D01*
X59041Y258268D01*
X58812Y258145D01*
X58604Y257994D01*
X58420Y257816D01*
X58257Y257611D01*
X58116Y257376D01*
X57993Y257110D01*
X57889Y256813D01*
X57804Y256484D01*
X57738Y256123D01*
X57691Y255731D01*
X57662Y255307D01*
X57653Y254852D01*
X57662Y254380D01*
X57691Y253940D01*
X57738Y253531D01*
X57804Y253155D01*
X57889Y252811D01*
X57993Y252499D01*
X58116Y252219D01*
X58257Y251971D01*
X58277Y251944D01*
X58420Y251753D01*
X58606Y251564D01*
X58814Y251405D01*
X59046Y251274D01*
X59300Y251173D01*
X59578Y251100D01*
X59878Y251057D01*
X60202Y251042D01*
G37*
%LPD*%
G36*
X85801Y249825D02*
X85296Y249844D01*
X84821Y249901D01*
X84377Y249996D01*
X83964Y250129D01*
X83582Y250300D01*
X83231Y250510D01*
X82911Y250757D01*
X82622Y251042D01*
X82366Y251366D01*
X82143Y251730D01*
X81955Y252134D01*
X81801Y252577D01*
X81681Y253060D01*
X81596Y253583D01*
X81544Y254145D01*
X81527Y254747D01*
X81543Y255355D01*
X81591Y255922D01*
X81671Y256447D01*
X81783Y256931D01*
X81928Y257374D01*
X82104Y257776D01*
X82312Y258137D01*
X82552Y258456D01*
X82826Y258737D01*
X83136Y258979D01*
X83482Y259185D01*
X83864Y259353D01*
X84281Y259484D01*
X84735Y259577D01*
X85224Y259633D01*
X85749Y259652D01*
X86263Y259633D01*
X86745Y259575D01*
X87193Y259479D01*
X87607Y259345D01*
X87989Y259173D01*
X88337Y258962D01*
X88653Y258713D01*
X88935Y258426D01*
X89184Y258100D01*
X89399Y257736D01*
X89582Y257334D01*
X89731Y256893D01*
X89847Y256414D01*
X89930Y255897D01*
X89980Y255341D01*
X89997Y254747D01*
X89980Y254167D01*
X89931Y253622D01*
X89848Y253112D01*
X89732Y252637D01*
X89583Y252198D01*
X89401Y251794D01*
X89185Y251424D01*
X88937Y251090D01*
X88656Y250794D01*
X88344Y250537D01*
X87999Y250319D01*
X87623Y250141D01*
X87215Y250003D01*
X86776Y249904D01*
X86305Y249845D01*
X85801Y249825D01*
G37*
%LPC*%
G36*
X85819Y250990D02*
X86134Y251004D01*
X86428Y251049D01*
X86700Y251122D01*
X86950Y251225D01*
X87178Y251358D01*
X87385Y251519D01*
X87570Y251711D01*
X87733Y251931D01*
X87875Y252181D01*
X87999Y252460D01*
X88104Y252769D01*
X88189Y253106D01*
X88256Y253473D01*
X88303Y253868D01*
X88332Y254293D01*
X88341Y254747D01*
X88332Y255213D01*
X88303Y255647D01*
X88255Y256049D01*
X88187Y256419D01*
X88100Y256757D01*
X87994Y257063D01*
X87869Y257338D01*
X87724Y257581D01*
X87558Y257793D01*
X87367Y257977D01*
X87153Y258133D01*
X86915Y258260D01*
X86653Y258360D01*
X86367Y258430D01*
X86057Y258473D01*
X85723Y258487D01*
X85391Y258473D01*
X85085Y258431D01*
X84803Y258362D01*
X84546Y258265D01*
X84313Y258140D01*
X84106Y257987D01*
X83923Y257806D01*
X83765Y257598D01*
X83629Y257359D01*
X83510Y257086D01*
X83410Y256780D01*
X83328Y256441D01*
X83265Y256068D01*
X83219Y255661D01*
X83192Y255221D01*
X83183Y254747D01*
X83192Y254279D01*
X83221Y253843D01*
X83268Y253440D01*
X83335Y253068D01*
X83420Y252728D01*
X83525Y252420D01*
X83649Y252144D01*
X83791Y251901D01*
X83956Y251687D01*
X84146Y251502D01*
X84362Y251346D01*
X84603Y251217D01*
X84869Y251118D01*
X85160Y251047D01*
X85477Y251004D01*
X85819Y250990D01*
G37*
%LPD*%
G36*
X116708Y249825D02*
X116202Y249844D01*
X115727Y249901D01*
X115283Y249996D01*
X114871Y250129D01*
X114489Y250300D01*
X114138Y250510D01*
X113818Y250757D01*
X113528Y251042D01*
X113272Y251366D01*
X113049Y251730D01*
X112861Y252134D01*
X112707Y252577D01*
X112587Y253060D01*
X112502Y253583D01*
X112451Y254145D01*
X112434Y254747D01*
X112450Y255355D01*
X112498Y255922D01*
X112578Y256447D01*
X112690Y256931D01*
X112834Y257374D01*
X113010Y257776D01*
X113218Y258137D01*
X113458Y258456D01*
X113732Y258737D01*
X114042Y258979D01*
X114388Y259185D01*
X114770Y259353D01*
X115187Y259484D01*
X115641Y259577D01*
X116130Y259633D01*
X116655Y259652D01*
X117170Y259633D01*
X117651Y259575D01*
X118099Y259479D01*
X118514Y259345D01*
X118895Y259173D01*
X119244Y258962D01*
X119559Y258713D01*
X119841Y258426D01*
X120090Y258100D01*
X120306Y257736D01*
X120488Y257334D01*
X120638Y256893D01*
X120754Y256414D01*
X120837Y255897D01*
X120886Y255341D01*
X120903Y254747D01*
X120886Y254167D01*
X120837Y253622D01*
X120754Y253112D01*
X120638Y252637D01*
X120489Y252198D01*
X120307Y251794D01*
X120092Y251424D01*
X119843Y251090D01*
X119562Y250794D01*
X119250Y250537D01*
X118906Y250319D01*
X118529Y250141D01*
X118122Y250003D01*
X117682Y249904D01*
X117211Y249845D01*
X116708Y249825D01*
G37*
%LPC*%
G36*
X116725Y250990D02*
X117041Y251004D01*
X117334Y251049D01*
X117606Y251122D01*
X117856Y251225D01*
X118085Y251358D01*
X118291Y251519D01*
X118476Y251711D01*
X118639Y251931D01*
X118782Y252181D01*
X118905Y252460D01*
X119010Y252769D01*
X119096Y253106D01*
X119162Y253473D01*
X119210Y253868D01*
X119238Y254293D01*
X119248Y254747D01*
X119238Y255213D01*
X119209Y255647D01*
X119161Y256049D01*
X119093Y256419D01*
X119006Y256757D01*
X118900Y257063D01*
X118775Y257338D01*
X118630Y257581D01*
X118464Y257793D01*
X118274Y257977D01*
X118059Y258133D01*
X117821Y258260D01*
X117559Y258360D01*
X117273Y258430D01*
X116963Y258473D01*
X116629Y258487D01*
X116297Y258473D01*
X115991Y258431D01*
X115709Y258362D01*
X115452Y258265D01*
X115220Y258140D01*
X115012Y257987D01*
X114829Y257806D01*
X114671Y257598D01*
X114535Y257359D01*
X114417Y257086D01*
X114316Y256780D01*
X114235Y256441D01*
X114171Y256068D01*
X114125Y255661D01*
X114098Y255221D01*
X114089Y254747D01*
X114098Y254279D01*
X114127Y253843D01*
X114174Y253440D01*
X114241Y253068D01*
X114327Y252728D01*
X114431Y252420D01*
X114555Y252144D01*
X114698Y251901D01*
X114862Y251687D01*
X115053Y251502D01*
X115268Y251346D01*
X115509Y251217D01*
X115775Y251118D01*
X116066Y251047D01*
X116383Y251004D01*
X116725Y250990D01*
G37*
%LPD*%
G36*
X147614Y249825D02*
X147108Y249844D01*
X146634Y249901D01*
X146190Y249996D01*
X145777Y250129D01*
X145395Y250300D01*
X145044Y250510D01*
X144724Y250757D01*
X144435Y251042D01*
X144178Y251366D01*
X143956Y251730D01*
X143767Y252134D01*
X143613Y252577D01*
X143494Y253060D01*
X143408Y253583D01*
X143357Y254145D01*
X143340Y254747D01*
X143356Y255355D01*
X143404Y255922D01*
X143484Y256447D01*
X143596Y256931D01*
X143740Y257374D01*
X143916Y257776D01*
X144124Y258137D01*
X144365Y258456D01*
X144639Y258737D01*
X144949Y258979D01*
X145294Y259185D01*
X145676Y259353D01*
X146094Y259484D01*
X146547Y259577D01*
X147036Y259633D01*
X147561Y259652D01*
X148076Y259633D01*
X148557Y259575D01*
X149005Y259479D01*
X149420Y259345D01*
X149802Y259173D01*
X150150Y258962D01*
X150465Y258713D01*
X150747Y258426D01*
X150996Y258100D01*
X151212Y257736D01*
X151394Y257334D01*
X151544Y256893D01*
X151660Y256414D01*
X151743Y255897D01*
X151793Y255341D01*
X151809Y254747D01*
X151793Y254167D01*
X151743Y253622D01*
X151660Y253112D01*
X151544Y252637D01*
X151395Y252198D01*
X151213Y251794D01*
X150998Y251424D01*
X150750Y251090D01*
X150469Y250794D01*
X150156Y250537D01*
X149812Y250319D01*
X149436Y250141D01*
X149028Y250003D01*
X148588Y249904D01*
X148117Y249845D01*
X147614Y249825D01*
G37*
%LPC*%
G36*
X147631Y250990D02*
X147947Y251004D01*
X148240Y251049D01*
X148512Y251122D01*
X148762Y251225D01*
X148991Y251358D01*
X149197Y251519D01*
X149382Y251711D01*
X149545Y251931D01*
X149688Y252181D01*
X149812Y252460D01*
X149916Y252769D01*
X150002Y253106D01*
X150068Y253473D01*
X150116Y253868D01*
X150144Y254293D01*
X150154Y254747D01*
X150144Y255213D01*
X150115Y255647D01*
X150067Y256049D01*
X150000Y256419D01*
X149913Y256757D01*
X149807Y257063D01*
X149681Y257338D01*
X149536Y257581D01*
X149370Y257793D01*
X149180Y257977D01*
X148966Y258133D01*
X148727Y258260D01*
X148465Y258360D01*
X148179Y258430D01*
X147869Y258473D01*
X147535Y258487D01*
X147204Y258473D01*
X146897Y258431D01*
X146615Y258362D01*
X146358Y258265D01*
X146126Y258140D01*
X145918Y257987D01*
X145736Y257806D01*
X145578Y257598D01*
X145441Y257359D01*
X145323Y257086D01*
X145223Y256780D01*
X145141Y256441D01*
X145077Y256068D01*
X145032Y255661D01*
X145004Y255221D01*
X144995Y254747D01*
X145005Y254279D01*
X145033Y253843D01*
X145081Y253440D01*
X145147Y253068D01*
X145233Y252728D01*
X145338Y252420D01*
X145461Y252144D01*
X145604Y251901D01*
X145769Y251687D01*
X145959Y251502D01*
X146174Y251346D01*
X146415Y251217D01*
X146681Y251118D01*
X146973Y251047D01*
X147289Y251004D01*
X147631Y250990D01*
G37*
%LPD*%
G36*
X318036Y250000D02*
X316529Y250000D01*
X316529Y262341D01*
X318675Y262341D01*
X321898Y253784D01*
X322013Y253467D01*
X322201Y252886D01*
X322386Y252263D01*
X322494Y251822D01*
X322709Y252676D01*
X322874Y253248D01*
X323046Y253784D01*
X326330Y262341D01*
X328529Y262341D01*
X328529Y250000D01*
X327040Y250000D01*
X327040Y258233D01*
X327075Y259888D01*
X327101Y260861D01*
X326812Y259897D01*
X326321Y258408D01*
X323090Y250000D01*
X321916Y250000D01*
X318728Y258408D01*
X318552Y258893D01*
X318364Y259464D01*
X317957Y260861D01*
X318016Y259573D01*
X318036Y258233D01*
X318036Y250000D01*
G37*
G36*
X218091Y250000D02*
X216383Y250000D01*
X221341Y262341D01*
X223241Y262341D01*
X228277Y250000D01*
X226543Y250000D01*
X225124Y253609D01*
X219501Y253609D01*
X218091Y250000D01*
G37*
%LPC*%
G36*
X224616Y254914D02*
X223040Y258969D01*
X222663Y260004D01*
X222392Y260834D01*
X222313Y261080D01*
X222076Y260353D01*
X221831Y259630D01*
X221586Y258986D01*
X220001Y254914D01*
X224616Y254914D01*
G37*
%LPD*%
G36*
X77155Y249825D02*
X76874Y249832D01*
X76603Y249853D01*
X76343Y249888D01*
X76094Y249938D01*
X75856Y250001D01*
X75629Y250079D01*
X75412Y250170D01*
X75206Y250276D01*
X75009Y250399D01*
X74818Y250541D01*
X74633Y250703D01*
X74454Y250886D01*
X74282Y251088D01*
X74115Y251310D01*
X73801Y251813D01*
X73748Y251813D01*
X73700Y251355D01*
X73660Y251151D01*
X73609Y250962D01*
X73547Y250790D01*
X73475Y250635D01*
X73391Y250495D01*
X73297Y250372D01*
X73190Y250264D01*
X73068Y250171D01*
X72931Y250092D01*
X72779Y250027D01*
X72613Y249977D01*
X72431Y249941D01*
X72234Y249920D01*
X72023Y249912D01*
X71713Y249921D01*
X71407Y249947D01*
X71105Y249991D01*
X70805Y250053D01*
X70805Y251034D01*
X71079Y250988D01*
X71322Y250972D01*
X71560Y250994D01*
X71756Y251061D01*
X71910Y251172D01*
X72023Y251327D01*
X72103Y251526D01*
X72161Y251768D01*
X72195Y252054D01*
X72207Y252382D01*
X72207Y256464D01*
X72221Y256840D01*
X72263Y257193D01*
X72334Y257524D01*
X72432Y257831D01*
X72559Y258116D01*
X72714Y258378D01*
X72897Y258617D01*
X73109Y258833D01*
X73348Y259025D01*
X73615Y259191D01*
X73910Y259332D01*
X74232Y259447D01*
X74582Y259537D01*
X74960Y259601D01*
X75365Y259639D01*
X75798Y259652D01*
X76211Y259642D01*
X76600Y259612D01*
X76967Y259562D01*
X77310Y259492D01*
X77629Y259402D01*
X77925Y259292D01*
X78198Y259162D01*
X78447Y259013D01*
X78673Y258843D01*
X78875Y258653D01*
X79055Y258443D01*
X79210Y258213D01*
X79342Y257964D01*
X79451Y257694D01*
X79537Y257404D01*
X79599Y257094D01*
X77952Y256946D01*
X77922Y257136D01*
X77880Y257313D01*
X77826Y257476D01*
X77760Y257627D01*
X77681Y257763D01*
X77591Y257887D01*
X77489Y257996D01*
X77374Y258093D01*
X77245Y258177D01*
X77097Y258250D01*
X76932Y258312D01*
X76748Y258362D01*
X76546Y258401D01*
X76326Y258430D01*
X75833Y258452D01*
X75579Y258444D01*
X75342Y258421D01*
X75123Y258382D01*
X74922Y258327D01*
X74738Y258257D01*
X74571Y258171D01*
X74423Y258070D01*
X74291Y257953D01*
X74176Y257818D01*
X74077Y257662D01*
X73992Y257486D01*
X73923Y257289D01*
X73870Y257072D01*
X73831Y256834D01*
X73808Y256576D01*
X73801Y256297D01*
X73801Y255781D01*
X75929Y255746D01*
X76449Y255721D01*
X76932Y255673D01*
X77378Y255603D01*
X77787Y255509D01*
X78159Y255393D01*
X78493Y255253D01*
X78791Y255090D01*
X79051Y254905D01*
X79278Y254697D01*
X79475Y254468D01*
X79641Y254218D01*
X79777Y253946D01*
X79883Y253653D01*
X79959Y253338D01*
X80004Y253002D01*
X80019Y252645D01*
X80008Y252325D01*
X79974Y252023D01*
X79918Y251739D01*
X79840Y251471D01*
X79739Y251222D01*
X79615Y250990D01*
X79469Y250775D01*
X79301Y250578D01*
X79110Y250402D01*
X78898Y250249D01*
X78663Y250119D01*
X78406Y250013D01*
X78126Y249931D01*
X77825Y249872D01*
X77501Y249837D01*
X77155Y249825D01*
G37*
%LPC*%
G36*
X76796Y251007D02*
X76983Y251014D01*
X77159Y251034D01*
X77324Y251066D01*
X77478Y251112D01*
X77621Y251171D01*
X77753Y251244D01*
X77873Y251329D01*
X77983Y251428D01*
X78080Y251538D01*
X78165Y251660D01*
X78236Y251792D01*
X78295Y251936D01*
X78340Y252090D01*
X78373Y252255D01*
X78392Y252432D01*
X78399Y252619D01*
X78380Y252957D01*
X78322Y253260D01*
X78227Y253530D01*
X78092Y253766D01*
X77922Y253971D01*
X77719Y254147D01*
X77482Y254295D01*
X77212Y254414D01*
X76892Y254507D01*
X76504Y254576D01*
X76049Y254621D01*
X75526Y254642D01*
X73801Y254677D01*
X73801Y253898D01*
X73825Y253537D01*
X73898Y253180D01*
X74020Y252829D01*
X74190Y252483D01*
X74403Y252158D01*
X74651Y251869D01*
X74935Y251617D01*
X75255Y251401D01*
X75604Y251229D01*
X75977Y251106D01*
X76375Y251032D01*
X76582Y251013D01*
X76796Y251007D01*
G37*
%LPD*%
G36*
X257624Y249825D02*
X257343Y249832D01*
X257072Y249853D01*
X256812Y249888D01*
X256563Y249938D01*
X256325Y250001D01*
X256098Y250079D01*
X255881Y250170D01*
X255675Y250276D01*
X255478Y250399D01*
X255287Y250541D01*
X255102Y250703D01*
X254923Y250886D01*
X254750Y251088D01*
X254584Y251310D01*
X254269Y251813D01*
X254217Y251813D01*
X254169Y251355D01*
X254129Y251151D01*
X254078Y250962D01*
X254016Y250790D01*
X253943Y250635D01*
X253860Y250495D01*
X253766Y250372D01*
X253659Y250264D01*
X253537Y250171D01*
X253400Y250092D01*
X253248Y250027D01*
X253081Y249977D01*
X252900Y249941D01*
X252703Y249920D01*
X252491Y249912D01*
X252182Y249921D01*
X251876Y249947D01*
X251573Y249991D01*
X251274Y250053D01*
X251274Y251034D01*
X251548Y250988D01*
X251791Y250972D01*
X252028Y250994D01*
X252224Y251061D01*
X252379Y251172D01*
X252491Y251327D01*
X252572Y251526D01*
X252629Y251768D01*
X252664Y252054D01*
X252675Y252382D01*
X252675Y256464D01*
X252690Y256840D01*
X252732Y257193D01*
X252802Y257524D01*
X252901Y257831D01*
X253028Y258116D01*
X253183Y258378D01*
X253366Y258617D01*
X253578Y258833D01*
X253817Y259025D01*
X254084Y259191D01*
X254379Y259332D01*
X254701Y259447D01*
X255051Y259537D01*
X255428Y259601D01*
X255834Y259639D01*
X256266Y259652D01*
X256680Y259642D01*
X257069Y259612D01*
X257435Y259562D01*
X257778Y259492D01*
X258098Y259402D01*
X258394Y259292D01*
X258667Y259162D01*
X258916Y259013D01*
X259142Y258843D01*
X259344Y258653D01*
X259523Y258443D01*
X259679Y258213D01*
X259811Y257964D01*
X259920Y257694D01*
X260006Y257404D01*
X260068Y257094D01*
X258421Y256946D01*
X258391Y257136D01*
X258349Y257313D01*
X258295Y257476D01*
X258228Y257627D01*
X258150Y257763D01*
X258060Y257887D01*
X257957Y257996D01*
X257843Y258093D01*
X257713Y258177D01*
X257566Y258250D01*
X257400Y258312D01*
X257217Y258362D01*
X257015Y258401D01*
X256795Y258430D01*
X256301Y258452D01*
X256047Y258444D01*
X255811Y258421D01*
X255592Y258382D01*
X255391Y258327D01*
X255207Y258257D01*
X255040Y258171D01*
X254891Y258070D01*
X254760Y257953D01*
X254645Y257818D01*
X254545Y257662D01*
X254461Y257486D01*
X254392Y257289D01*
X254338Y257072D01*
X254300Y256834D01*
X254277Y256576D01*
X254269Y256297D01*
X254269Y255781D01*
X256398Y255746D01*
X256918Y255721D01*
X257401Y255673D01*
X257847Y255603D01*
X258256Y255509D01*
X258627Y255393D01*
X258962Y255253D01*
X259260Y255090D01*
X259520Y254905D01*
X259747Y254697D01*
X259944Y254468D01*
X260110Y254218D01*
X260246Y253946D01*
X260352Y253653D01*
X260428Y253338D01*
X260473Y253002D01*
X260488Y252645D01*
X260477Y252325D01*
X260443Y252023D01*
X260387Y251739D01*
X260308Y251471D01*
X260207Y251222D01*
X260084Y250990D01*
X259938Y250775D01*
X259770Y250578D01*
X259579Y250402D01*
X259366Y250249D01*
X259131Y250119D01*
X258874Y250013D01*
X258595Y249931D01*
X258293Y249872D01*
X257970Y249837D01*
X257624Y249825D01*
G37*
%LPC*%
G36*
X257265Y251007D02*
X257452Y251014D01*
X257628Y251034D01*
X257793Y251066D01*
X257947Y251112D01*
X258090Y251171D01*
X258221Y251244D01*
X258342Y251329D01*
X258452Y251428D01*
X258549Y251538D01*
X258634Y251660D01*
X258705Y251792D01*
X258764Y251936D01*
X258809Y252090D01*
X258842Y252255D01*
X258861Y252432D01*
X258868Y252619D01*
X258849Y252957D01*
X258791Y253260D01*
X258695Y253530D01*
X258561Y253766D01*
X258391Y253971D01*
X258188Y254147D01*
X257951Y254295D01*
X257681Y254414D01*
X257360Y254507D01*
X256973Y254576D01*
X256517Y254621D01*
X255995Y254642D01*
X254269Y254677D01*
X254269Y253898D01*
X254294Y253537D01*
X254367Y253180D01*
X254489Y252829D01*
X254659Y252483D01*
X254872Y252158D01*
X255120Y251869D01*
X255404Y251617D01*
X255723Y251401D01*
X256073Y251229D01*
X256446Y251106D01*
X256843Y251032D01*
X257051Y251013D01*
X257265Y251007D01*
G37*
%LPD*%
G36*
X311436Y249825D02*
X311155Y249832D01*
X310884Y249853D01*
X310625Y249888D01*
X310376Y249938D01*
X310137Y250001D01*
X309910Y250079D01*
X309693Y250170D01*
X309488Y250276D01*
X309290Y250399D01*
X309099Y250541D01*
X308914Y250703D01*
X308736Y250886D01*
X308563Y251088D01*
X308396Y251310D01*
X308082Y251813D01*
X308029Y251813D01*
X307982Y251355D01*
X307941Y251151D01*
X307890Y250962D01*
X307829Y250790D01*
X307756Y250635D01*
X307673Y250495D01*
X307578Y250372D01*
X307471Y250264D01*
X307349Y250171D01*
X307212Y250092D01*
X307061Y250027D01*
X306894Y249977D01*
X306712Y249941D01*
X306515Y249920D01*
X306304Y249912D01*
X305995Y249921D01*
X305689Y249947D01*
X305386Y249991D01*
X305087Y250053D01*
X305087Y251034D01*
X305360Y250988D01*
X305603Y250972D01*
X305841Y250994D01*
X306037Y251061D01*
X306191Y251172D01*
X306304Y251327D01*
X306384Y251526D01*
X306442Y251768D01*
X306476Y252054D01*
X306488Y252382D01*
X306488Y256464D01*
X306502Y256840D01*
X306544Y257193D01*
X306615Y257524D01*
X306713Y257831D01*
X306840Y258116D01*
X306995Y258378D01*
X307179Y258617D01*
X307390Y258833D01*
X307629Y259025D01*
X307896Y259191D01*
X308191Y259332D01*
X308513Y259447D01*
X308863Y259537D01*
X309241Y259601D01*
X309646Y259639D01*
X310079Y259652D01*
X310492Y259642D01*
X310882Y259612D01*
X311248Y259562D01*
X311591Y259492D01*
X311910Y259402D01*
X312206Y259292D01*
X312479Y259162D01*
X312728Y259013D01*
X312954Y258843D01*
X313157Y258653D01*
X313336Y258443D01*
X313491Y258213D01*
X313624Y257964D01*
X313733Y257694D01*
X313818Y257404D01*
X313880Y257094D01*
X312234Y256946D01*
X312203Y257136D01*
X312161Y257313D01*
X312107Y257476D01*
X312041Y257627D01*
X311963Y257763D01*
X311872Y257887D01*
X311770Y257996D01*
X311655Y258093D01*
X311526Y258177D01*
X311378Y258250D01*
X311213Y258312D01*
X311029Y258362D01*
X310828Y258401D01*
X310608Y258430D01*
X310114Y258452D01*
X309860Y258444D01*
X309623Y258421D01*
X309405Y258382D01*
X309203Y258327D01*
X309019Y258257D01*
X308853Y258171D01*
X308704Y258070D01*
X308572Y257953D01*
X308457Y257818D01*
X308358Y257662D01*
X308274Y257486D01*
X308205Y257289D01*
X308151Y257072D01*
X308113Y256834D01*
X308090Y256576D01*
X308082Y256297D01*
X308082Y255781D01*
X310210Y255746D01*
X310730Y255721D01*
X311213Y255673D01*
X311659Y255603D01*
X312068Y255509D01*
X312440Y255393D01*
X312775Y255253D01*
X313072Y255090D01*
X313333Y254905D01*
X313560Y254697D01*
X313756Y254468D01*
X313922Y254218D01*
X314059Y253946D01*
X314164Y253653D01*
X314240Y253338D01*
X314285Y253002D01*
X314301Y252645D01*
X314289Y252325D01*
X314256Y252023D01*
X314200Y251739D01*
X314121Y251471D01*
X314020Y251222D01*
X313897Y250990D01*
X313751Y250775D01*
X313582Y250578D01*
X313392Y250402D01*
X313179Y250249D01*
X312944Y250119D01*
X312687Y250013D01*
X312407Y249931D01*
X312106Y249872D01*
X311782Y249837D01*
X311436Y249825D01*
G37*
%LPC*%
G36*
X311077Y251007D02*
X311265Y251014D01*
X311441Y251034D01*
X311606Y251066D01*
X311759Y251112D01*
X311902Y251171D01*
X312034Y251244D01*
X312155Y251329D01*
X312264Y251428D01*
X312362Y251538D01*
X312446Y251660D01*
X312518Y251792D01*
X312576Y251936D01*
X312622Y252090D01*
X312654Y252255D01*
X312674Y252432D01*
X312680Y252619D01*
X312661Y252957D01*
X312604Y253260D01*
X312508Y253530D01*
X312374Y253766D01*
X312204Y253971D01*
X312000Y254147D01*
X311764Y254295D01*
X311493Y254414D01*
X311173Y254507D01*
X310785Y254576D01*
X310330Y254621D01*
X309807Y254642D01*
X308082Y254677D01*
X308082Y253898D01*
X308106Y253537D01*
X308179Y253180D01*
X308301Y252829D01*
X308472Y252483D01*
X308684Y252158D01*
X308933Y251869D01*
X309216Y251617D01*
X309536Y251401D01*
X309885Y251229D01*
X310258Y251106D01*
X310656Y251032D01*
X310864Y251013D01*
X311077Y251007D01*
G37*
%LPD*%
G36*
X193344Y249825D02*
X192976Y249834D01*
X192624Y249860D01*
X192290Y249904D01*
X191973Y249965D01*
X191672Y250044D01*
X191388Y250140D01*
X191122Y250254D01*
X190872Y250385D01*
X190639Y250534D01*
X190423Y250701D01*
X190224Y250885D01*
X190041Y251086D01*
X189876Y251305D01*
X189728Y251542D01*
X189596Y251796D01*
X189481Y252067D01*
X190865Y252461D01*
X191000Y252160D01*
X191184Y251885D01*
X191418Y251638D01*
X191702Y251419D01*
X191862Y251322D01*
X192036Y251239D01*
X192222Y251168D01*
X192421Y251110D01*
X192633Y251065D01*
X192857Y251033D01*
X193094Y251014D01*
X193344Y251007D01*
X193658Y251021D01*
X193953Y251063D01*
X194229Y251132D01*
X194485Y251228D01*
X194721Y251353D01*
X194938Y251505D01*
X195136Y251685D01*
X195315Y251892D01*
X195473Y252125D01*
X195610Y252381D01*
X195725Y252660D01*
X195820Y252963D01*
X195894Y253288D01*
X195947Y253638D01*
X195978Y254010D01*
X195989Y254406D01*
X189227Y254406D01*
X189227Y254616D01*
X189244Y255226D01*
X189293Y255796D01*
X189374Y256327D01*
X189488Y256819D01*
X189635Y257272D01*
X189815Y257685D01*
X190027Y258058D01*
X190272Y258393D01*
X190549Y258688D01*
X190859Y258944D01*
X191202Y259160D01*
X191577Y259337D01*
X191985Y259475D01*
X192426Y259573D01*
X192899Y259632D01*
X193405Y259652D01*
X193901Y259632D01*
X194367Y259574D01*
X194803Y259476D01*
X195211Y259339D01*
X195588Y259163D01*
X195937Y258947D01*
X196256Y258693D01*
X196545Y258399D01*
X196803Y258069D01*
X197026Y257705D01*
X197215Y257306D01*
X197369Y256873D01*
X197490Y256406D01*
X197576Y255905D01*
X197627Y255369D01*
X197644Y254800D01*
X197627Y254201D01*
X197576Y253641D01*
X197490Y253118D01*
X197369Y252634D01*
X197215Y252188D01*
X197026Y251780D01*
X196803Y251409D01*
X196545Y251077D01*
X196255Y250784D01*
X195933Y250529D01*
X195580Y250314D01*
X195195Y250138D01*
X194779Y250001D01*
X194332Y249903D01*
X193854Y249844D01*
X193344Y249825D01*
G37*
%LPC*%
G36*
X195971Y255614D02*
X195949Y255940D01*
X195907Y256248D01*
X195845Y256539D01*
X195764Y256811D01*
X195665Y257065D01*
X195545Y257302D01*
X195407Y257520D01*
X195249Y257721D01*
X195074Y257900D01*
X194884Y258056D01*
X194679Y258188D01*
X194459Y258295D01*
X194225Y258379D01*
X193975Y258439D01*
X193711Y258475D01*
X193431Y258487D01*
X193144Y258476D01*
X192875Y258444D01*
X192622Y258390D01*
X192387Y258315D01*
X192169Y258218D01*
X191968Y258100D01*
X191785Y257961D01*
X191618Y257799D01*
X191469Y257615D01*
X191334Y257405D01*
X191216Y257170D01*
X191113Y256909D01*
X191025Y256624D01*
X190953Y256312D01*
X190897Y255976D01*
X190856Y255614D01*
X195971Y255614D01*
G37*
%LPD*%
G36*
X237219Y249825D02*
X236851Y249834D01*
X236499Y249860D01*
X236165Y249904D01*
X235848Y249965D01*
X235547Y250044D01*
X235263Y250140D01*
X234997Y250254D01*
X234747Y250385D01*
X234514Y250534D01*
X234298Y250701D01*
X234099Y250885D01*
X233916Y251086D01*
X233751Y251305D01*
X233603Y251542D01*
X233471Y251796D01*
X233356Y252067D01*
X234740Y252461D01*
X234875Y252160D01*
X235059Y251885D01*
X235293Y251638D01*
X235577Y251419D01*
X235737Y251322D01*
X235911Y251239D01*
X236097Y251168D01*
X236296Y251110D01*
X236508Y251065D01*
X236732Y251033D01*
X236969Y251014D01*
X237219Y251007D01*
X237533Y251021D01*
X237828Y251063D01*
X238104Y251132D01*
X238360Y251228D01*
X238596Y251353D01*
X238813Y251505D01*
X239011Y251685D01*
X239190Y251892D01*
X239348Y252125D01*
X239485Y252381D01*
X239600Y252660D01*
X239695Y252963D01*
X239769Y253288D01*
X239822Y253638D01*
X239853Y254010D01*
X239864Y254406D01*
X233102Y254406D01*
X233102Y254616D01*
X233119Y255226D01*
X233168Y255796D01*
X233249Y256327D01*
X233363Y256819D01*
X233510Y257272D01*
X233690Y257685D01*
X233902Y258058D01*
X234147Y258393D01*
X234424Y258688D01*
X234734Y258944D01*
X235077Y259160D01*
X235452Y259337D01*
X235860Y259475D01*
X236301Y259573D01*
X236774Y259632D01*
X237280Y259652D01*
X237776Y259632D01*
X238242Y259574D01*
X238678Y259476D01*
X239086Y259339D01*
X239463Y259163D01*
X239812Y258947D01*
X240131Y258693D01*
X240420Y258399D01*
X240678Y258069D01*
X240901Y257705D01*
X241090Y257306D01*
X241244Y256873D01*
X241365Y256406D01*
X241451Y255905D01*
X241502Y255369D01*
X241519Y254800D01*
X241502Y254201D01*
X241451Y253641D01*
X241365Y253118D01*
X241244Y252634D01*
X241090Y252188D01*
X240901Y251780D01*
X240678Y251409D01*
X240420Y251077D01*
X240130Y250784D01*
X239808Y250529D01*
X239455Y250314D01*
X239070Y250138D01*
X238654Y250001D01*
X238207Y249903D01*
X237729Y249844D01*
X237219Y249825D01*
G37*
%LPC*%
G36*
X239846Y255614D02*
X239824Y255940D01*
X239782Y256248D01*
X239720Y256539D01*
X239639Y256811D01*
X239540Y257065D01*
X239420Y257302D01*
X239282Y257520D01*
X239124Y257721D01*
X238949Y257900D01*
X238759Y258056D01*
X238554Y258188D01*
X238334Y258295D01*
X238100Y258379D01*
X237850Y258439D01*
X237586Y258475D01*
X237306Y258487D01*
X237019Y258476D01*
X236750Y258444D01*
X236497Y258390D01*
X236262Y258315D01*
X236044Y258218D01*
X235843Y258100D01*
X235660Y257961D01*
X235493Y257799D01*
X235344Y257615D01*
X235209Y257405D01*
X235091Y257170D01*
X234988Y256909D01*
X234900Y256624D01*
X234828Y256312D01*
X234772Y255976D01*
X234731Y255614D01*
X239846Y255614D01*
G37*
%LPD*%
G36*
X291063Y249825D02*
X290694Y249834D01*
X290343Y249860D01*
X290009Y249904D01*
X289691Y249965D01*
X289391Y250044D01*
X289107Y250140D01*
X288840Y250254D01*
X288590Y250385D01*
X288358Y250534D01*
X288141Y250701D01*
X287942Y250885D01*
X287760Y251086D01*
X287595Y251305D01*
X287446Y251542D01*
X287315Y251796D01*
X287200Y252067D01*
X288584Y252461D01*
X288718Y252160D01*
X288903Y251885D01*
X289137Y251638D01*
X289420Y251419D01*
X289581Y251322D01*
X289755Y251239D01*
X289941Y251168D01*
X290140Y251110D01*
X290351Y251065D01*
X290576Y251033D01*
X290813Y251014D01*
X291063Y251007D01*
X291377Y251021D01*
X291672Y251063D01*
X291947Y251132D01*
X292203Y251228D01*
X292440Y251353D01*
X292657Y251505D01*
X292855Y251685D01*
X293033Y251892D01*
X293191Y252125D01*
X293328Y252381D01*
X293444Y252660D01*
X293539Y252963D01*
X293613Y253288D01*
X293666Y253638D01*
X293697Y254010D01*
X293708Y254406D01*
X286946Y254406D01*
X286946Y254616D01*
X286962Y255226D01*
X287011Y255796D01*
X287093Y256327D01*
X287207Y256819D01*
X287354Y257272D01*
X287534Y257685D01*
X287746Y258058D01*
X287991Y258393D01*
X288268Y258688D01*
X288578Y258944D01*
X288921Y259160D01*
X289296Y259337D01*
X289704Y259475D01*
X290145Y259573D01*
X290618Y259632D01*
X291124Y259652D01*
X291619Y259632D01*
X292085Y259574D01*
X292522Y259476D01*
X292929Y259339D01*
X293307Y259163D01*
X293655Y258947D01*
X293974Y258693D01*
X294264Y258399D01*
X294521Y258069D01*
X294745Y257705D01*
X294934Y257306D01*
X295088Y256873D01*
X295208Y256406D01*
X295294Y255905D01*
X295346Y255369D01*
X295363Y254800D01*
X295346Y254201D01*
X295294Y253641D01*
X295208Y253118D01*
X295088Y252634D01*
X294934Y252188D01*
X294745Y251780D01*
X294521Y251409D01*
X294264Y251077D01*
X293973Y250784D01*
X293652Y250529D01*
X293298Y250314D01*
X292914Y250138D01*
X292498Y250001D01*
X292051Y249903D01*
X291572Y249844D01*
X291063Y249825D01*
G37*
%LPC*%
G36*
X293690Y255614D02*
X293667Y255940D01*
X293625Y256248D01*
X293564Y256539D01*
X293483Y256811D01*
X293383Y257065D01*
X293264Y257302D01*
X293125Y257520D01*
X292968Y257721D01*
X292793Y257900D01*
X292603Y258056D01*
X292398Y258188D01*
X292178Y258295D01*
X291944Y258379D01*
X291694Y258439D01*
X291430Y258475D01*
X291150Y258487D01*
X290863Y258476D01*
X290593Y258444D01*
X290341Y258390D01*
X290106Y258315D01*
X289888Y258218D01*
X289687Y258100D01*
X289503Y257961D01*
X289337Y257799D01*
X289187Y257615D01*
X289053Y257405D01*
X288934Y257170D01*
X288831Y256909D01*
X288744Y256624D01*
X288672Y256312D01*
X288616Y255976D01*
X288575Y255614D01*
X293690Y255614D01*
G37*
%LPD*%
G36*
X158603Y249825D02*
X158155Y249838D01*
X157720Y249877D01*
X157299Y249942D01*
X156892Y250033D01*
X156499Y250150D01*
X156119Y250293D01*
X155754Y250462D01*
X155402Y250657D01*
X155067Y250877D01*
X154751Y251121D01*
X154454Y251388D01*
X154177Y251679D01*
X153919Y251995D01*
X153680Y252334D01*
X153461Y252696D01*
X153261Y253083D01*
X154627Y253766D01*
X154795Y253455D01*
X154973Y253165D01*
X155162Y252894D01*
X155360Y252643D01*
X155568Y252413D01*
X155787Y252202D01*
X156015Y252012D01*
X156254Y251841D01*
X156502Y251691D01*
X156761Y251561D01*
X157030Y251451D01*
X157309Y251360D01*
X157598Y251290D01*
X157896Y251240D01*
X158205Y251210D01*
X158524Y251200D01*
X159017Y251221D01*
X159484Y251286D01*
X159924Y251394D01*
X160339Y251545D01*
X160727Y251739D01*
X161089Y251976D01*
X161425Y252256D01*
X161734Y252579D01*
X162013Y252938D01*
X162254Y253325D01*
X162458Y253739D01*
X162625Y254181D01*
X162754Y254651D01*
X162847Y255149D01*
X162903Y255674D01*
X162921Y256227D01*
X162903Y256786D01*
X162850Y257314D01*
X162761Y257811D01*
X162637Y258278D01*
X162476Y258714D01*
X162281Y259120D01*
X162049Y259495D01*
X161783Y259840D01*
X161484Y260149D01*
X161156Y260417D01*
X160801Y260643D01*
X160416Y260829D01*
X160004Y260973D01*
X159562Y261076D01*
X159093Y261138D01*
X158595Y261158D01*
X158274Y261149D01*
X157964Y261123D01*
X157666Y261078D01*
X157378Y261016D01*
X157102Y260936D01*
X156837Y260838D01*
X156582Y260723D01*
X156339Y260589D01*
X156110Y260439D01*
X155897Y260273D01*
X155700Y260091D01*
X155519Y259893D01*
X155355Y259679D01*
X155207Y259449D01*
X155075Y259204D01*
X154960Y258942D01*
X153374Y259468D01*
X153541Y259835D01*
X153729Y260179D01*
X153939Y260500D01*
X154171Y260797D01*
X154425Y261071D01*
X154701Y261322D01*
X154999Y261550D01*
X155319Y261754D01*
X155660Y261935D01*
X156021Y262091D01*
X156402Y262224D01*
X156803Y262332D01*
X157225Y262416D01*
X157667Y262477D01*
X158129Y262513D01*
X158612Y262525D01*
X158960Y262518D01*
X159298Y262499D01*
X159627Y262466D01*
X159946Y262420D01*
X160255Y262361D01*
X160555Y262289D01*
X160845Y262205D01*
X161126Y262106D01*
X161397Y261995D01*
X161658Y261871D01*
X161910Y261734D01*
X162153Y261584D01*
X162609Y261244D01*
X163026Y260852D01*
X163400Y260414D01*
X163724Y259935D01*
X163998Y259417D01*
X164116Y259143D01*
X164222Y258859D01*
X164315Y258565D01*
X164396Y258261D01*
X164465Y257947D01*
X164521Y257623D01*
X164564Y257289D01*
X164595Y256945D01*
X164614Y256591D01*
X164620Y256227D01*
X164609Y255743D01*
X164576Y255275D01*
X164520Y254824D01*
X164442Y254389D01*
X164342Y253971D01*
X164219Y253569D01*
X164074Y253184D01*
X163907Y252816D01*
X163718Y252466D01*
X163509Y252137D01*
X163280Y251829D01*
X163031Y251542D01*
X162761Y251275D01*
X162471Y251029D01*
X162161Y250804D01*
X161831Y250600D01*
X161482Y250418D01*
X161118Y250261D01*
X160739Y250128D01*
X160343Y250019D01*
X159932Y249934D01*
X159505Y249873D01*
X159062Y249837D01*
X158603Y249825D01*
G37*
G36*
X297947Y250000D02*
X296099Y250000D01*
X300145Y255404D01*
X296300Y259477D01*
X298148Y259477D01*
X302309Y254879D01*
X302309Y262998D01*
X303885Y262998D01*
X303885Y250000D01*
X302309Y250000D01*
X302309Y253372D01*
X301152Y254327D01*
X297947Y250000D01*
G37*
G36*
X135368Y250000D02*
X133783Y250000D01*
X133783Y256315D01*
X133794Y256746D01*
X133828Y257145D01*
X133884Y257513D01*
X133963Y257849D01*
X134065Y258153D01*
X134189Y258426D01*
X134336Y258667D01*
X134505Y258877D01*
X134699Y259058D01*
X134919Y259216D01*
X135165Y259349D01*
X135437Y259458D01*
X135735Y259543D01*
X136060Y259603D01*
X136410Y259640D01*
X136787Y259652D01*
X137046Y259646D01*
X137295Y259626D01*
X137533Y259595D01*
X137760Y259550D01*
X137976Y259493D01*
X138182Y259423D01*
X138377Y259340D01*
X138560Y259245D01*
X138736Y259134D01*
X138907Y259005D01*
X139072Y258859D01*
X139232Y258694D01*
X139535Y258311D01*
X139817Y257856D01*
X139844Y257856D01*
X139874Y258798D01*
X139896Y259240D01*
X139914Y259477D01*
X141403Y259477D01*
X141380Y259212D01*
X141363Y258787D01*
X141350Y257454D01*
X141350Y250000D01*
X139774Y250000D01*
X139774Y255492D01*
X139763Y255828D01*
X139732Y256146D01*
X139681Y256445D01*
X139609Y256724D01*
X139517Y256985D01*
X139404Y257227D01*
X139271Y257451D01*
X139117Y257655D01*
X138945Y257838D01*
X138758Y257996D01*
X138556Y258130D01*
X138339Y258240D01*
X138107Y258325D01*
X137860Y258386D01*
X137598Y258422D01*
X137321Y258434D01*
X136955Y258420D01*
X136636Y258378D01*
X136364Y258306D01*
X136139Y258207D01*
X135951Y258075D01*
X135791Y257907D01*
X135658Y257703D01*
X135552Y257462D01*
X135471Y257178D01*
X135414Y256840D01*
X135379Y256451D01*
X135368Y256008D01*
X135368Y250000D01*
G37*
G36*
X174993Y249825D02*
X174550Y249836D01*
X174133Y249870D01*
X173741Y249927D01*
X173374Y250007D01*
X173032Y250109D01*
X172716Y250234D01*
X172425Y250381D01*
X172160Y250552D01*
X171923Y250743D01*
X171717Y250954D01*
X171543Y251183D01*
X171401Y251432D01*
X171290Y251700D01*
X171211Y251987D01*
X171164Y252293D01*
X171148Y252619D01*
X171159Y252883D01*
X171192Y253132D01*
X171247Y253367D01*
X171323Y253587D01*
X171420Y253793D01*
X171535Y253986D01*
X171667Y254167D01*
X171818Y254335D01*
X171993Y254494D01*
X172196Y254645D01*
X172428Y254790D01*
X172690Y254927D01*
X173009Y255063D01*
X173417Y255206D01*
X173911Y255354D01*
X174494Y255509D01*
X175589Y255798D01*
X175965Y255916D01*
X176228Y256017D01*
X176421Y256114D01*
X176589Y256221D01*
X176732Y256337D01*
X176850Y256464D01*
X176942Y256604D01*
X177008Y256762D01*
X177047Y256937D01*
X177060Y257129D01*
X177052Y257288D01*
X177028Y257437D01*
X176989Y257575D01*
X176933Y257703D01*
X176862Y257821D01*
X176774Y257928D01*
X176671Y258024D01*
X176552Y258110D01*
X176416Y258186D01*
X176263Y258252D01*
X176092Y258308D01*
X175904Y258353D01*
X175475Y258414D01*
X174976Y258434D01*
X174518Y258413D01*
X174110Y258350D01*
X173750Y258245D01*
X173439Y258097D01*
X173179Y257910D01*
X172975Y257687D01*
X172894Y257561D01*
X172827Y257426D01*
X172773Y257283D01*
X172733Y257129D01*
X171315Y257305D01*
X171386Y257599D01*
X171480Y257872D01*
X171594Y258124D01*
X171730Y258356D01*
X171886Y258566D01*
X172064Y258756D01*
X172263Y258926D01*
X172484Y259074D01*
X172725Y259203D01*
X172986Y259315D01*
X173267Y259410D01*
X173569Y259488D01*
X173890Y259548D01*
X174232Y259591D01*
X174594Y259617D01*
X174976Y259626D01*
X175405Y259615D01*
X175807Y259583D01*
X176184Y259530D01*
X176534Y259456D01*
X176857Y259360D01*
X177154Y259244D01*
X177425Y259106D01*
X177669Y258947D01*
X177885Y258768D01*
X178073Y258569D01*
X178232Y258351D01*
X178362Y258114D01*
X178463Y257857D01*
X178535Y257581D01*
X178578Y257286D01*
X178593Y256972D01*
X178573Y256635D01*
X178512Y256326D01*
X178411Y256044D01*
X178269Y255789D01*
X178091Y255558D01*
X177882Y255344D01*
X177642Y255148D01*
X177371Y254970D01*
X177035Y254801D01*
X176601Y254630D01*
X176070Y254457D01*
X175440Y254283D01*
X174310Y253985D01*
X173910Y253864D01*
X173570Y253727D01*
X173289Y253575D01*
X173066Y253407D01*
X172898Y253219D01*
X172777Y253004D01*
X172705Y252763D01*
X172681Y252496D01*
X172690Y252318D01*
X172716Y252151D01*
X172759Y251996D01*
X172820Y251852D01*
X172898Y251720D01*
X172994Y251600D01*
X173107Y251490D01*
X173237Y251393D01*
X173386Y251306D01*
X173555Y251232D01*
X173745Y251168D01*
X173954Y251117D01*
X174184Y251076D01*
X174433Y251048D01*
X174703Y251030D01*
X174993Y251025D01*
X175523Y251047D01*
X175992Y251113D01*
X176203Y251163D01*
X176399Y251224D01*
X176580Y251296D01*
X176745Y251379D01*
X176896Y251475D01*
X177033Y251582D01*
X177157Y251703D01*
X177268Y251836D01*
X177365Y251982D01*
X177449Y252141D01*
X177520Y252312D01*
X177577Y252496D01*
X178970Y252225D01*
X178887Y251926D01*
X178783Y251648D01*
X178659Y251390D01*
X178513Y251153D01*
X178347Y250936D01*
X178159Y250739D01*
X177951Y250563D01*
X177721Y250407D01*
X177469Y250271D01*
X177191Y250152D01*
X176888Y250052D01*
X176560Y249970D01*
X176206Y249907D01*
X175827Y249861D01*
X175423Y249834D01*
X174993Y249825D01*
G37*
G36*
X183962Y249825D02*
X183519Y249836D01*
X183102Y249870D01*
X182710Y249927D01*
X182343Y250007D01*
X182001Y250109D01*
X181685Y250234D01*
X181394Y250381D01*
X181129Y250552D01*
X180891Y250743D01*
X180686Y250954D01*
X180512Y251183D01*
X180370Y251432D01*
X180259Y251700D01*
X180180Y251987D01*
X180133Y252293D01*
X180117Y252619D01*
X180128Y252883D01*
X180161Y253132D01*
X180215Y253367D01*
X180292Y253587D01*
X180389Y253793D01*
X180503Y253986D01*
X180636Y254167D01*
X180787Y254335D01*
X180961Y254494D01*
X181165Y254645D01*
X181397Y254790D01*
X181658Y254927D01*
X181978Y255063D01*
X182385Y255206D01*
X182880Y255354D01*
X183463Y255509D01*
X184557Y255798D01*
X184934Y255916D01*
X185197Y256017D01*
X185390Y256114D01*
X185558Y256221D01*
X185701Y256337D01*
X185819Y256464D01*
X185911Y256604D01*
X185976Y256762D01*
X186016Y256937D01*
X186029Y257129D01*
X186021Y257288D01*
X185997Y257437D01*
X185957Y257575D01*
X185902Y257703D01*
X185830Y257821D01*
X185743Y257928D01*
X185640Y258024D01*
X185521Y258110D01*
X185385Y258186D01*
X185232Y258252D01*
X185061Y258308D01*
X184873Y258353D01*
X184444Y258414D01*
X183944Y258434D01*
X183487Y258413D01*
X183078Y258350D01*
X182718Y258245D01*
X182407Y258097D01*
X182148Y257910D01*
X181944Y257687D01*
X181863Y257561D01*
X181796Y257426D01*
X181742Y257283D01*
X181702Y257129D01*
X180283Y257305D01*
X180355Y257599D01*
X180448Y257872D01*
X180563Y258124D01*
X180698Y258356D01*
X180855Y258566D01*
X181033Y258756D01*
X181232Y258926D01*
X181453Y259074D01*
X181694Y259203D01*
X181955Y259315D01*
X182236Y259410D01*
X182538Y259488D01*
X182859Y259548D01*
X183201Y259591D01*
X183563Y259617D01*
X183944Y259626D01*
X184373Y259615D01*
X184776Y259583D01*
X185152Y259530D01*
X185502Y259456D01*
X185826Y259360D01*
X186123Y259244D01*
X186393Y259106D01*
X186638Y258947D01*
X186854Y258768D01*
X187042Y258569D01*
X187201Y258351D01*
X187331Y258114D01*
X187432Y257857D01*
X187504Y257581D01*
X187547Y257286D01*
X187562Y256972D01*
X187541Y256635D01*
X187481Y256326D01*
X187379Y256044D01*
X187238Y255789D01*
X187060Y255558D01*
X186851Y255344D01*
X186611Y255148D01*
X186340Y254970D01*
X186004Y254801D01*
X185570Y254630D01*
X185038Y254457D01*
X184409Y254283D01*
X183279Y253985D01*
X182879Y253864D01*
X182539Y253727D01*
X182257Y253575D01*
X182035Y253407D01*
X181866Y253219D01*
X181746Y253004D01*
X181674Y252763D01*
X181650Y252496D01*
X181658Y252318D01*
X181684Y252151D01*
X181728Y251996D01*
X181789Y251852D01*
X181867Y251720D01*
X181963Y251600D01*
X182075Y251490D01*
X182206Y251393D01*
X182355Y251306D01*
X182524Y251232D01*
X182713Y251168D01*
X182923Y251117D01*
X183153Y251076D01*
X183402Y251048D01*
X183672Y251030D01*
X183962Y251025D01*
X184492Y251047D01*
X184960Y251113D01*
X185172Y251163D01*
X185368Y251224D01*
X185548Y251296D01*
X185714Y251379D01*
X185865Y251475D01*
X186002Y251582D01*
X186126Y251703D01*
X186237Y251836D01*
X186334Y251982D01*
X186418Y252141D01*
X186489Y252312D01*
X186546Y252496D01*
X187938Y252225D01*
X187856Y251926D01*
X187752Y251648D01*
X187627Y251390D01*
X187482Y251153D01*
X187315Y250936D01*
X187128Y250739D01*
X186919Y250563D01*
X186690Y250407D01*
X186438Y250271D01*
X186160Y250152D01*
X185857Y250052D01*
X185529Y249970D01*
X185175Y249907D01*
X184796Y249861D01*
X184392Y249834D01*
X183962Y249825D01*
G37*
G36*
X275712Y249825D02*
X275269Y249836D01*
X274852Y249870D01*
X274460Y249927D01*
X274093Y250007D01*
X273751Y250109D01*
X273435Y250234D01*
X273144Y250381D01*
X272879Y250552D01*
X272641Y250743D01*
X272436Y250954D01*
X272262Y251183D01*
X272120Y251432D01*
X272009Y251700D01*
X271930Y251987D01*
X271883Y252293D01*
X271867Y252619D01*
X271878Y252883D01*
X271911Y253132D01*
X271965Y253367D01*
X272042Y253587D01*
X272139Y253793D01*
X272253Y253986D01*
X272386Y254167D01*
X272537Y254335D01*
X272711Y254494D01*
X272915Y254645D01*
X273147Y254790D01*
X273408Y254927D01*
X273728Y255063D01*
X274135Y255206D01*
X274630Y255354D01*
X275213Y255509D01*
X276307Y255798D01*
X276684Y255916D01*
X276947Y256017D01*
X277140Y256114D01*
X277308Y256221D01*
X277451Y256337D01*
X277569Y256464D01*
X277661Y256604D01*
X277726Y256762D01*
X277766Y256937D01*
X277779Y257129D01*
X277771Y257288D01*
X277747Y257437D01*
X277707Y257575D01*
X277652Y257703D01*
X277580Y257821D01*
X277493Y257928D01*
X277390Y258024D01*
X277271Y258110D01*
X277135Y258186D01*
X276982Y258252D01*
X276811Y258308D01*
X276623Y258353D01*
X276194Y258414D01*
X275694Y258434D01*
X275237Y258413D01*
X274828Y258350D01*
X274468Y258245D01*
X274157Y258097D01*
X273898Y257910D01*
X273694Y257687D01*
X273613Y257561D01*
X273546Y257426D01*
X273492Y257283D01*
X273452Y257129D01*
X272033Y257305D01*
X272105Y257599D01*
X272198Y257872D01*
X272313Y258124D01*
X272448Y258356D01*
X272605Y258566D01*
X272783Y258756D01*
X272982Y258926D01*
X273203Y259074D01*
X273444Y259203D01*
X273705Y259315D01*
X273986Y259410D01*
X274288Y259488D01*
X274609Y259548D01*
X274951Y259591D01*
X275313Y259617D01*
X275694Y259626D01*
X276123Y259615D01*
X276526Y259583D01*
X276902Y259530D01*
X277252Y259456D01*
X277576Y259360D01*
X277873Y259244D01*
X278143Y259106D01*
X278388Y258947D01*
X278604Y258768D01*
X278792Y258569D01*
X278951Y258351D01*
X279081Y258114D01*
X279182Y257857D01*
X279254Y257581D01*
X279297Y257286D01*
X279312Y256972D01*
X279291Y256635D01*
X279231Y256326D01*
X279129Y256044D01*
X278988Y255789D01*
X278810Y255558D01*
X278601Y255344D01*
X278361Y255148D01*
X278090Y254970D01*
X277754Y254801D01*
X277320Y254630D01*
X276788Y254457D01*
X276159Y254283D01*
X275029Y253985D01*
X274629Y253864D01*
X274289Y253727D01*
X274007Y253575D01*
X273785Y253407D01*
X273616Y253219D01*
X273496Y253004D01*
X273424Y252763D01*
X273400Y252496D01*
X273408Y252318D01*
X273434Y252151D01*
X273478Y251996D01*
X273539Y251852D01*
X273617Y251720D01*
X273713Y251600D01*
X273825Y251490D01*
X273956Y251393D01*
X274105Y251306D01*
X274274Y251232D01*
X274463Y251168D01*
X274673Y251117D01*
X274903Y251076D01*
X275152Y251048D01*
X275422Y251030D01*
X275712Y251025D01*
X276242Y251047D01*
X276710Y251113D01*
X276922Y251163D01*
X277118Y251224D01*
X277298Y251296D01*
X277464Y251379D01*
X277615Y251475D01*
X277752Y251582D01*
X277876Y251703D01*
X277987Y251836D01*
X278084Y251982D01*
X278168Y252141D01*
X278239Y252312D01*
X278296Y252496D01*
X279688Y252225D01*
X279606Y251926D01*
X279502Y251648D01*
X279377Y251390D01*
X279232Y251153D01*
X279065Y250936D01*
X278878Y250739D01*
X278669Y250563D01*
X278440Y250407D01*
X278188Y250271D01*
X277910Y250152D01*
X277607Y250052D01*
X277279Y249970D01*
X276925Y249907D01*
X276546Y249861D01*
X276142Y249834D01*
X275712Y249825D01*
G37*
G36*
X202532Y249825D02*
X202163Y249838D01*
X201811Y249876D01*
X201476Y249939D01*
X201156Y250028D01*
X200854Y250143D01*
X200567Y250283D01*
X200298Y250448D01*
X200044Y250639D01*
X199811Y250852D01*
X199603Y251081D01*
X199420Y251328D01*
X199262Y251592D01*
X199129Y251873D01*
X199021Y252172D01*
X198938Y252487D01*
X198879Y252820D01*
X200473Y252925D01*
X200513Y252697D01*
X200566Y252483D01*
X200633Y252285D01*
X200713Y252102D01*
X200807Y251935D01*
X200914Y251782D01*
X201035Y251646D01*
X201170Y251524D01*
X201315Y251417D01*
X201469Y251325D01*
X201632Y251246D01*
X201804Y251182D01*
X201984Y251133D01*
X202172Y251097D01*
X202369Y251076D01*
X202575Y251069D01*
X202866Y251083D01*
X203138Y251125D01*
X203390Y251197D01*
X203624Y251296D01*
X203839Y251424D01*
X204035Y251581D01*
X204213Y251766D01*
X204371Y251979D01*
X204510Y252222D01*
X204631Y252496D01*
X204734Y252801D01*
X204818Y253136D01*
X204883Y253501D01*
X204929Y253898D01*
X204957Y254325D01*
X204966Y254782D01*
X204958Y255257D01*
X204931Y255696D01*
X204888Y256100D01*
X204826Y256468D01*
X204747Y256801D01*
X204651Y257098D01*
X204537Y257359D01*
X204406Y257585D01*
X204255Y257780D01*
X204082Y257949D01*
X203888Y258092D01*
X203672Y258209D01*
X203435Y258300D01*
X203176Y258365D01*
X202895Y258404D01*
X202593Y258417D01*
X202370Y258410D01*
X202159Y258388D01*
X201962Y258352D01*
X201778Y258301D01*
X201608Y258236D01*
X201450Y258156D01*
X201305Y258062D01*
X201174Y257953D01*
X200948Y257700D01*
X200769Y257408D01*
X200637Y257074D01*
X200552Y256700D01*
X198932Y256823D01*
X199004Y257145D01*
X199099Y257449D01*
X199216Y257735D01*
X199355Y258003D01*
X199517Y258254D01*
X199701Y258486D01*
X199907Y258701D01*
X200136Y258899D01*
X200384Y259075D01*
X200647Y259228D01*
X200925Y259358D01*
X201219Y259464D01*
X201528Y259546D01*
X201853Y259605D01*
X202193Y259640D01*
X202549Y259652D01*
X203025Y259632D01*
X203473Y259573D01*
X203892Y259475D01*
X204283Y259338D01*
X204646Y259161D01*
X204980Y258945D01*
X205285Y258690D01*
X205562Y258395D01*
X205808Y258063D01*
X206022Y257696D01*
X206202Y257293D01*
X206350Y256855D01*
X206465Y256381D01*
X206547Y255872D01*
X206597Y255327D01*
X206613Y254747D01*
X206597Y254163D01*
X206548Y253615D01*
X206466Y253103D01*
X206351Y252626D01*
X206204Y252186D01*
X206024Y251782D01*
X205812Y251414D01*
X205566Y251082D01*
X205290Y250787D01*
X204984Y250532D01*
X204649Y250316D01*
X204284Y250139D01*
X203890Y250002D01*
X203467Y249903D01*
X203014Y249844D01*
X202532Y249825D01*
G37*
G36*
X211500Y249825D02*
X211132Y249838D01*
X210780Y249876D01*
X210444Y249939D01*
X210125Y250028D01*
X209822Y250143D01*
X209536Y250283D01*
X209266Y250448D01*
X209013Y250639D01*
X208780Y250852D01*
X208572Y251081D01*
X208389Y251328D01*
X208231Y251592D01*
X208098Y251873D01*
X207990Y252172D01*
X207906Y252487D01*
X207848Y252820D01*
X209442Y252925D01*
X209482Y252697D01*
X209535Y252483D01*
X209602Y252285D01*
X209682Y252102D01*
X209776Y251935D01*
X209883Y251782D01*
X210004Y251646D01*
X210138Y251524D01*
X210284Y251417D01*
X210438Y251325D01*
X210601Y251246D01*
X210772Y251182D01*
X210952Y251133D01*
X211141Y251097D01*
X211338Y251076D01*
X211544Y251069D01*
X211835Y251083D01*
X212106Y251125D01*
X212359Y251197D01*
X212593Y251296D01*
X212808Y251424D01*
X213004Y251581D01*
X213181Y251766D01*
X213340Y251979D01*
X213479Y252222D01*
X213600Y252496D01*
X213703Y252801D01*
X213786Y253136D01*
X213851Y253501D01*
X213898Y253898D01*
X213926Y254325D01*
X213935Y254782D01*
X213926Y255257D01*
X213900Y255696D01*
X213856Y256100D01*
X213795Y256468D01*
X213716Y256801D01*
X213620Y257098D01*
X213506Y257359D01*
X213375Y257585D01*
X213224Y257780D01*
X213051Y257949D01*
X212857Y258092D01*
X212641Y258209D01*
X212404Y258300D01*
X212145Y258365D01*
X211864Y258404D01*
X211562Y258417D01*
X211338Y258410D01*
X211128Y258388D01*
X210931Y258352D01*
X210747Y258301D01*
X210576Y258236D01*
X210419Y258156D01*
X210274Y258062D01*
X210143Y257953D01*
X209917Y257700D01*
X209738Y257408D01*
X209606Y257074D01*
X209521Y256700D01*
X207901Y256823D01*
X207973Y257145D01*
X208068Y257449D01*
X208185Y257735D01*
X208324Y258003D01*
X208486Y258254D01*
X208670Y258486D01*
X208876Y258701D01*
X209105Y258899D01*
X209352Y259075D01*
X209615Y259228D01*
X209894Y259358D01*
X210188Y259464D01*
X210497Y259546D01*
X210822Y259605D01*
X211162Y259640D01*
X211518Y259652D01*
X211994Y259632D01*
X212442Y259573D01*
X212861Y259475D01*
X213252Y259338D01*
X213614Y259161D01*
X213948Y258945D01*
X214254Y258690D01*
X214531Y258395D01*
X214777Y258063D01*
X214991Y257696D01*
X215171Y257293D01*
X215319Y256855D01*
X215434Y256381D01*
X215516Y255872D01*
X215565Y255327D01*
X215582Y254747D01*
X215565Y254163D01*
X215516Y253615D01*
X215435Y253103D01*
X215320Y252626D01*
X215173Y252186D01*
X214993Y251782D01*
X214780Y251414D01*
X214535Y251082D01*
X214259Y250787D01*
X213953Y250532D01*
X213618Y250316D01*
X213253Y250139D01*
X212859Y250002D01*
X212436Y249903D01*
X211983Y249844D01*
X211500Y249825D01*
G37*
G36*
X246407Y249825D02*
X246038Y249838D01*
X245686Y249876D01*
X245351Y249939D01*
X245031Y250028D01*
X244729Y250143D01*
X244442Y250283D01*
X244173Y250448D01*
X243919Y250639D01*
X243686Y250852D01*
X243478Y251081D01*
X243295Y251328D01*
X243137Y251592D01*
X243004Y251873D01*
X242896Y252172D01*
X242813Y252487D01*
X242754Y252820D01*
X244348Y252925D01*
X244388Y252697D01*
X244441Y252483D01*
X244508Y252285D01*
X244588Y252102D01*
X244682Y251935D01*
X244789Y251782D01*
X244910Y251646D01*
X245045Y251524D01*
X245190Y251417D01*
X245344Y251325D01*
X245507Y251246D01*
X245679Y251182D01*
X245859Y251133D01*
X246047Y251097D01*
X246244Y251076D01*
X246450Y251069D01*
X246741Y251083D01*
X247013Y251125D01*
X247265Y251197D01*
X247499Y251296D01*
X247714Y251424D01*
X247910Y251581D01*
X248088Y251766D01*
X248246Y251979D01*
X248385Y252222D01*
X248506Y252496D01*
X248609Y252801D01*
X248693Y253136D01*
X248758Y253501D01*
X248804Y253898D01*
X248832Y254325D01*
X248841Y254782D01*
X248833Y255257D01*
X248806Y255696D01*
X248763Y256100D01*
X248701Y256468D01*
X248622Y256801D01*
X248526Y257098D01*
X248412Y257359D01*
X248281Y257585D01*
X248130Y257780D01*
X247957Y257949D01*
X247763Y258092D01*
X247547Y258209D01*
X247310Y258300D01*
X247051Y258365D01*
X246770Y258404D01*
X246468Y258417D01*
X246245Y258410D01*
X246034Y258388D01*
X245837Y258352D01*
X245653Y258301D01*
X245483Y258236D01*
X245325Y258156D01*
X245180Y258062D01*
X245049Y257953D01*
X244823Y257700D01*
X244644Y257408D01*
X244512Y257074D01*
X244427Y256700D01*
X242807Y256823D01*
X242879Y257145D01*
X242974Y257449D01*
X243091Y257735D01*
X243230Y258003D01*
X243392Y258254D01*
X243576Y258486D01*
X243782Y258701D01*
X244011Y258899D01*
X244259Y259075D01*
X244522Y259228D01*
X244800Y259358D01*
X245094Y259464D01*
X245403Y259546D01*
X245728Y259605D01*
X246068Y259640D01*
X246424Y259652D01*
X246900Y259632D01*
X247348Y259573D01*
X247767Y259475D01*
X248158Y259338D01*
X248521Y259161D01*
X248855Y258945D01*
X249160Y258690D01*
X249437Y258395D01*
X249683Y258063D01*
X249897Y257696D01*
X250077Y257293D01*
X250225Y256855D01*
X250340Y256381D01*
X250422Y255872D01*
X250472Y255327D01*
X250488Y254747D01*
X250472Y254163D01*
X250423Y253615D01*
X250341Y253103D01*
X250226Y252626D01*
X250079Y252186D01*
X249899Y251782D01*
X249687Y251414D01*
X249441Y251082D01*
X249165Y250787D01*
X248859Y250532D01*
X248524Y250316D01*
X248159Y250139D01*
X247765Y250002D01*
X247342Y249903D01*
X246889Y249844D01*
X246407Y249825D01*
G37*
G36*
X129367Y249860D02*
X128962Y249873D01*
X128561Y249912D01*
X128165Y249978D01*
X127773Y250070D01*
X127773Y251235D01*
X128298Y251143D01*
X128684Y251112D01*
X128939Y251130D01*
X129153Y251181D01*
X129327Y251268D01*
X129459Y251388D01*
X129557Y251552D01*
X129626Y251766D01*
X129668Y252031D01*
X129682Y252347D01*
X129682Y258329D01*
X127930Y258329D01*
X127930Y259477D01*
X129682Y259477D01*
X129682Y261596D01*
X130733Y261596D01*
X131197Y259477D01*
X132354Y259477D01*
X132354Y258329D01*
X131259Y258329D01*
X131259Y252006D01*
X131251Y251746D01*
X131229Y251503D01*
X131192Y251276D01*
X131140Y251067D01*
X131074Y250874D01*
X130993Y250698D01*
X130897Y250539D01*
X130786Y250396D01*
X130660Y250271D01*
X130520Y250162D01*
X130365Y250069D01*
X130195Y249994D01*
X130010Y249935D01*
X129810Y249893D01*
X129596Y249868D01*
X129367Y249860D01*
G37*
G36*
X110479Y250000D02*
X108902Y250000D01*
X108902Y262998D01*
X110479Y262998D01*
X110479Y250000D01*
G37*
G36*
X69569Y250000D02*
X67992Y250000D01*
X67992Y254940D01*
X67984Y255323D01*
X67960Y255682D01*
X67920Y256019D01*
X67863Y256334D01*
X67790Y256625D01*
X67702Y256893D01*
X67597Y257139D01*
X67476Y257362D01*
X67339Y257560D01*
X67188Y257731D01*
X67023Y257877D01*
X66843Y257995D01*
X66648Y258088D01*
X66439Y258154D01*
X66216Y258194D01*
X65978Y258207D01*
X65505Y258185D01*
X65308Y258157D01*
X65137Y258119D01*
X65137Y259564D01*
X65459Y259630D01*
X65776Y259652D01*
X65993Y259645D01*
X66198Y259624D01*
X66390Y259589D01*
X66569Y259540D01*
X66736Y259477D01*
X66890Y259401D01*
X67031Y259310D01*
X67160Y259205D01*
X67281Y259082D01*
X67398Y258934D01*
X67622Y258566D01*
X67832Y258102D01*
X68027Y257541D01*
X68062Y257541D01*
X68132Y259477D01*
X69621Y259477D01*
X69582Y258321D01*
X69569Y257270D01*
X69569Y250000D01*
G37*
G36*
X126381Y250000D02*
X124805Y250000D01*
X124805Y254940D01*
X124797Y255323D01*
X124772Y255682D01*
X124732Y256019D01*
X124676Y256334D01*
X124603Y256625D01*
X124514Y256893D01*
X124409Y257139D01*
X124288Y257362D01*
X124152Y257560D01*
X124001Y257731D01*
X123835Y257877D01*
X123655Y257995D01*
X123461Y258088D01*
X123252Y258154D01*
X123028Y258194D01*
X122790Y258207D01*
X122317Y258185D01*
X122120Y258157D01*
X121949Y258119D01*
X121949Y259564D01*
X122271Y259630D01*
X122589Y259652D01*
X122806Y259645D01*
X123010Y259624D01*
X123202Y259589D01*
X123382Y259540D01*
X123548Y259477D01*
X123702Y259401D01*
X123844Y259310D01*
X123973Y259205D01*
X124094Y259082D01*
X124211Y258934D01*
X124435Y258566D01*
X124644Y258102D01*
X124840Y257541D01*
X124875Y257541D01*
X124945Y259477D01*
X126434Y259477D01*
X126394Y258321D01*
X126381Y257270D01*
X126381Y250000D01*
G37*
G36*
X284913Y250000D02*
X283336Y250000D01*
X283336Y254940D01*
X283328Y255323D01*
X283304Y255682D01*
X283263Y256019D01*
X283207Y256334D01*
X283134Y256625D01*
X283045Y256893D01*
X282940Y257139D01*
X282819Y257362D01*
X282683Y257560D01*
X282532Y257731D01*
X282366Y257877D01*
X282186Y257995D01*
X281992Y258088D01*
X281783Y258154D01*
X281560Y258194D01*
X281322Y258207D01*
X280849Y258185D01*
X280652Y258157D01*
X280481Y258119D01*
X280481Y259564D01*
X280803Y259630D01*
X281120Y259652D01*
X281337Y259645D01*
X281542Y259624D01*
X281733Y259589D01*
X281913Y259540D01*
X282079Y259477D01*
X282234Y259401D01*
X282375Y259310D01*
X282504Y259205D01*
X282625Y259082D01*
X282742Y258934D01*
X282966Y258566D01*
X283176Y258102D01*
X283371Y257541D01*
X283406Y257541D01*
X283476Y259477D01*
X284965Y259477D01*
X284926Y258321D01*
X284913Y257270D01*
X284913Y250000D01*
G37*
G36*
X273190Y219825D02*
X272928Y219831D01*
X272674Y219850D01*
X272429Y219882D01*
X272191Y219927D01*
X271740Y220054D01*
X271321Y220232D01*
X270935Y220461D01*
X270582Y220741D01*
X270260Y221072D01*
X269971Y221454D01*
X269716Y221884D01*
X269494Y222360D01*
X269307Y222881D01*
X269154Y223449D01*
X269034Y224062D01*
X268949Y224720D01*
X268898Y225425D01*
X268881Y226175D01*
X268897Y226937D01*
X268946Y227651D01*
X269027Y228316D01*
X269140Y228934D01*
X269286Y229503D01*
X269465Y230024D01*
X269676Y230497D01*
X269919Y230922D01*
X270196Y231298D01*
X270509Y231623D01*
X270858Y231899D01*
X271243Y232124D01*
X271663Y232299D01*
X271886Y232368D01*
X272119Y232425D01*
X272360Y232468D01*
X272610Y232500D01*
X272869Y232518D01*
X273138Y232525D01*
X273413Y232519D01*
X273679Y232500D01*
X273936Y232469D01*
X274183Y232426D01*
X274421Y232370D01*
X274650Y232302D01*
X275079Y232128D01*
X275470Y231905D01*
X275823Y231633D01*
X276139Y231311D01*
X276418Y230939D01*
X276661Y230518D01*
X276872Y230047D01*
X277050Y229526D01*
X277196Y228956D01*
X277310Y228335D01*
X277391Y227665D01*
X277439Y226945D01*
X277456Y226175D01*
X277439Y225421D01*
X277389Y224713D01*
X277305Y224052D01*
X277188Y223438D01*
X277038Y222870D01*
X276855Y222348D01*
X276637Y221874D01*
X276387Y221445D01*
X276103Y221065D01*
X275787Y220736D01*
X275437Y220458D01*
X275054Y220230D01*
X274637Y220053D01*
X274188Y219926D01*
X273951Y219882D01*
X273706Y219850D01*
X273452Y219831D01*
X273190Y219825D01*
G37*
%LPC*%
G36*
X273173Y221112D02*
X273511Y221131D01*
X273826Y221188D01*
X274117Y221284D01*
X274385Y221417D01*
X274628Y221588D01*
X274849Y221797D01*
X275045Y222044D01*
X275218Y222330D01*
X275369Y222656D01*
X275499Y223027D01*
X275610Y223441D01*
X275701Y223900D01*
X275771Y224402D01*
X275821Y224949D01*
X275851Y225540D01*
X275862Y226175D01*
X275852Y226828D01*
X275822Y227433D01*
X275772Y227990D01*
X275703Y228500D01*
X275613Y228962D01*
X275504Y229377D01*
X275375Y229744D01*
X275227Y230064D01*
X275055Y230341D01*
X274858Y230581D01*
X274635Y230784D01*
X274387Y230950D01*
X274113Y231080D01*
X273813Y231172D01*
X273488Y231227D01*
X273138Y231246D01*
X272795Y231227D01*
X272478Y231171D01*
X272186Y231077D01*
X271919Y230946D01*
X271677Y230777D01*
X271460Y230571D01*
X271268Y230327D01*
X271101Y230046D01*
X270957Y229723D01*
X270831Y229354D01*
X270725Y228939D01*
X270638Y228478D01*
X270571Y227971D01*
X270522Y227418D01*
X270493Y226820D01*
X270484Y226175D01*
X270494Y225552D01*
X270524Y224970D01*
X270575Y224431D01*
X270646Y223933D01*
X270737Y223476D01*
X270848Y223061D01*
X270980Y222688D01*
X271132Y222356D01*
X271306Y222065D01*
X271503Y221812D01*
X271723Y221598D01*
X271966Y221423D01*
X272233Y221287D01*
X272523Y221190D01*
X272836Y221132D01*
X273173Y221112D01*
G37*
%LPD*%
G36*
X233055Y220000D02*
X231128Y220000D01*
X233140Y223053D01*
X234632Y225316D01*
X234289Y225389D01*
X233965Y225482D01*
X233660Y225598D01*
X233374Y225735D01*
X233218Y225827D01*
X233107Y225893D01*
X232859Y226074D01*
X232630Y226275D01*
X232420Y226499D01*
X232232Y226740D01*
X232069Y226995D01*
X231932Y227263D01*
X231819Y227545D01*
X231731Y227841D01*
X231669Y228151D01*
X231631Y228474D01*
X231619Y228811D01*
X231636Y229216D01*
X231690Y229597D01*
X231778Y229956D01*
X231902Y230292D01*
X232062Y230606D01*
X232257Y230896D01*
X232487Y231163D01*
X232753Y231408D01*
X233051Y231627D01*
X233379Y231816D01*
X233737Y231976D01*
X234125Y232108D01*
X234542Y232210D01*
X234989Y232282D01*
X235465Y232326D01*
X235972Y232341D01*
X241779Y232341D01*
X241779Y220000D01*
X240106Y220000D01*
X240106Y225124D01*
X236261Y225124D01*
X233055Y220000D01*
G37*
%LPC*%
G36*
X240106Y226446D02*
X240106Y231001D01*
X236138Y231001D01*
X235804Y230992D01*
X235491Y230965D01*
X235197Y230921D01*
X234924Y230860D01*
X234671Y230780D01*
X234438Y230683D01*
X234225Y230568D01*
X234032Y230436D01*
X233860Y230287D01*
X233712Y230121D01*
X233586Y229940D01*
X233483Y229743D01*
X233403Y229530D01*
X233346Y229300D01*
X233312Y229055D01*
X233300Y228794D01*
X233312Y228523D01*
X233345Y228268D01*
X233402Y228029D01*
X233481Y227805D01*
X233583Y227596D01*
X233707Y227403D01*
X233854Y227226D01*
X234023Y227064D01*
X234213Y226919D01*
X234422Y226794D01*
X234649Y226687D01*
X234895Y226601D01*
X235160Y226533D01*
X235444Y226485D01*
X235747Y226456D01*
X236068Y226446D01*
X240106Y226446D01*
G37*
%LPD*%
G36*
X297866Y220000D02*
X296378Y220000D01*
X296378Y222794D01*
X294643Y222794D01*
X294643Y224038D01*
X296378Y224038D01*
X296378Y232341D01*
X298033Y232341D01*
X303682Y224020D01*
X303682Y222794D01*
X297866Y222794D01*
X297866Y220000D01*
G37*
%LPC*%
G36*
X302228Y224038D02*
X302088Y224213D01*
X301615Y224861D01*
X298453Y229521D01*
X298112Y230099D01*
X297866Y230563D01*
X297866Y224038D01*
X302228Y224038D01*
G37*
%LPD*%
G36*
X225250Y219825D02*
X224882Y219834D01*
X224531Y219860D01*
X224196Y219904D01*
X223879Y219965D01*
X223578Y220044D01*
X223295Y220140D01*
X223028Y220254D01*
X222778Y220385D01*
X222545Y220534D01*
X222329Y220701D01*
X222130Y220885D01*
X221948Y221086D01*
X221782Y221305D01*
X221634Y221542D01*
X221502Y221796D01*
X221388Y222067D01*
X222771Y222461D01*
X222906Y222160D01*
X223090Y221885D01*
X223324Y221638D01*
X223608Y221419D01*
X223769Y221322D01*
X223942Y221239D01*
X224128Y221168D01*
X224327Y221110D01*
X224539Y221065D01*
X224763Y221033D01*
X225000Y221014D01*
X225250Y221007D01*
X225564Y221021D01*
X225859Y221063D01*
X226135Y221132D01*
X226391Y221228D01*
X226628Y221353D01*
X226845Y221505D01*
X227042Y221685D01*
X227221Y221892D01*
X227379Y222125D01*
X227516Y222381D01*
X227632Y222660D01*
X227727Y222963D01*
X227800Y223288D01*
X227853Y223638D01*
X227885Y224010D01*
X227895Y224406D01*
X221134Y224406D01*
X221134Y224616D01*
X221150Y225226D01*
X221199Y225796D01*
X221280Y226327D01*
X221395Y226819D01*
X221542Y227272D01*
X221721Y227685D01*
X221933Y228058D01*
X222178Y228393D01*
X222455Y228688D01*
X222766Y228944D01*
X223108Y229160D01*
X223484Y229337D01*
X223892Y229475D01*
X224332Y229573D01*
X224805Y229632D01*
X225311Y229652D01*
X225807Y229632D01*
X226273Y229574D01*
X226710Y229476D01*
X227117Y229339D01*
X227495Y229163D01*
X227843Y228947D01*
X228162Y228693D01*
X228451Y228399D01*
X228709Y228069D01*
X228932Y227705D01*
X229121Y227306D01*
X229276Y226873D01*
X229396Y226406D01*
X229482Y225905D01*
X229533Y225369D01*
X229551Y224800D01*
X229533Y224201D01*
X229482Y223641D01*
X229396Y223118D01*
X229276Y222634D01*
X229121Y222188D01*
X228932Y221780D01*
X228709Y221409D01*
X228451Y221077D01*
X228161Y220784D01*
X227839Y220529D01*
X227486Y220314D01*
X227101Y220138D01*
X226686Y220001D01*
X226238Y219903D01*
X225760Y219844D01*
X225250Y219825D01*
G37*
%LPC*%
G36*
X227878Y225614D02*
X227855Y225940D01*
X227813Y226248D01*
X227751Y226539D01*
X227671Y226811D01*
X227571Y227065D01*
X227451Y227302D01*
X227313Y227520D01*
X227155Y227721D01*
X226980Y227900D01*
X226790Y228056D01*
X226585Y228188D01*
X226366Y228295D01*
X226131Y228379D01*
X225882Y228439D01*
X225617Y228475D01*
X225338Y228487D01*
X225051Y228476D01*
X224781Y228444D01*
X224528Y228390D01*
X224293Y228315D01*
X224075Y228218D01*
X223874Y228100D01*
X223691Y227961D01*
X223525Y227799D01*
X223375Y227615D01*
X223241Y227405D01*
X223122Y227170D01*
X223019Y226909D01*
X222931Y226624D01*
X222860Y226312D01*
X222803Y225976D01*
X222763Y225614D01*
X227878Y225614D01*
G37*
%LPD*%
G36*
X253218Y219825D02*
X252729Y219840D01*
X252268Y219883D01*
X251837Y219957D01*
X251435Y220059D01*
X251062Y220191D01*
X250718Y220352D01*
X250403Y220542D01*
X250117Y220762D01*
X249863Y221008D01*
X249642Y221279D01*
X249455Y221573D01*
X249303Y221892D01*
X249184Y222235D01*
X249099Y222601D01*
X249048Y222992D01*
X249031Y223407D01*
X249043Y223696D01*
X249079Y223973D01*
X249139Y224237D01*
X249224Y224489D01*
X249332Y224728D01*
X249465Y224954D01*
X249621Y225168D01*
X249802Y225369D01*
X250004Y225554D01*
X250226Y225719D01*
X250466Y225865D01*
X250726Y225991D01*
X251005Y226097D01*
X251303Y226184D01*
X251620Y226250D01*
X251956Y226297D01*
X251956Y226332D01*
X251650Y226406D01*
X251363Y226494D01*
X251095Y226597D01*
X250845Y226715D01*
X250614Y226847D01*
X250402Y226995D01*
X250209Y227158D01*
X250034Y227335D01*
X249879Y227527D01*
X249745Y227733D01*
X249631Y227953D01*
X249538Y228186D01*
X249466Y228433D01*
X249414Y228694D01*
X249383Y228969D01*
X249373Y229258D01*
X249389Y229633D01*
X249437Y229986D01*
X249517Y230318D01*
X249630Y230630D01*
X249775Y230920D01*
X249952Y231188D01*
X250161Y231436D01*
X250402Y231662D01*
X250672Y231864D01*
X250968Y232039D01*
X251290Y232188D01*
X251638Y232309D01*
X252012Y232403D01*
X252411Y232471D01*
X252836Y232511D01*
X253288Y232525D01*
X253703Y232511D01*
X254099Y232472D01*
X254475Y232405D01*
X254833Y232312D01*
X255170Y232193D01*
X255489Y232047D01*
X255788Y231874D01*
X256069Y231675D01*
X256325Y231452D01*
X256553Y231209D01*
X256752Y230944D01*
X256924Y230659D01*
X257067Y230353D01*
X257181Y230026D01*
X257267Y229679D01*
X257325Y229310D01*
X255740Y229188D01*
X255705Y229424D01*
X255654Y229646D01*
X255586Y229855D01*
X255500Y230050D01*
X255398Y230232D01*
X255279Y230400D01*
X255144Y230554D01*
X254991Y230694D01*
X254824Y230819D01*
X254644Y230928D01*
X254452Y231020D01*
X254248Y231095D01*
X254031Y231153D01*
X253801Y231195D01*
X253560Y231220D01*
X253305Y231228D01*
X253027Y231219D01*
X252767Y231193D01*
X252524Y231148D01*
X252299Y231085D01*
X252092Y231004D01*
X251902Y230906D01*
X251730Y230789D01*
X251575Y230655D01*
X251439Y230505D01*
X251321Y230342D01*
X251220Y230166D01*
X251139Y229977D01*
X251075Y229775D01*
X251029Y229560D01*
X251002Y229332D01*
X250993Y229091D01*
X251004Y228849D01*
X251038Y228619D01*
X251093Y228403D01*
X251171Y228201D01*
X251272Y228013D01*
X251395Y227838D01*
X251540Y227676D01*
X251707Y227528D01*
X251894Y227396D01*
X252100Y227281D01*
X252324Y227184D01*
X252566Y227104D01*
X252827Y227042D01*
X253105Y226998D01*
X253402Y226972D01*
X253717Y226963D01*
X254575Y226963D01*
X254575Y225597D01*
X253682Y225597D01*
X253327Y225588D01*
X252993Y225561D01*
X252682Y225517D01*
X252391Y225455D01*
X252122Y225376D01*
X251875Y225279D01*
X251649Y225164D01*
X251444Y225032D01*
X251262Y224884D01*
X251105Y224722D01*
X250972Y224546D01*
X250863Y224356D01*
X250778Y224153D01*
X250717Y223936D01*
X250681Y223705D01*
X250669Y223460D01*
X250680Y223179D01*
X250711Y222917D01*
X250764Y222673D01*
X250839Y222446D01*
X250934Y222237D01*
X251051Y222046D01*
X251189Y221872D01*
X251348Y221717D01*
X251525Y221579D01*
X251719Y221460D01*
X251929Y221359D01*
X252155Y221277D01*
X252396Y221212D01*
X252654Y221167D01*
X252928Y221139D01*
X253218Y221130D01*
X253506Y221138D01*
X253779Y221164D01*
X254035Y221207D01*
X254276Y221267D01*
X254500Y221344D01*
X254708Y221438D01*
X254901Y221549D01*
X255077Y221677D01*
X255237Y221823D01*
X255381Y221985D01*
X255508Y222165D01*
X255620Y222362D01*
X255716Y222575D01*
X255796Y222806D01*
X255859Y223054D01*
X255907Y223319D01*
X257536Y223171D01*
X257469Y222769D01*
X257374Y222394D01*
X257250Y222043D01*
X257099Y221718D01*
X256919Y221418D01*
X256710Y221143D01*
X256474Y220894D01*
X256209Y220670D01*
X255918Y220472D01*
X255603Y220300D01*
X255265Y220155D01*
X254903Y220036D01*
X254517Y219944D01*
X254107Y219878D01*
X253674Y219838D01*
X253218Y219825D01*
G37*
G36*
X267285Y220000D02*
X259114Y220000D01*
X259114Y221340D01*
X265551Y221340D01*
X265399Y221650D01*
X265205Y221965D01*
X264970Y222287D01*
X264693Y222614D01*
X264369Y222955D01*
X263994Y223316D01*
X263568Y223697D01*
X263090Y224099D01*
X262249Y224795D01*
X261555Y225393D01*
X261009Y225894D01*
X260611Y226297D01*
X260307Y226652D01*
X260043Y227007D01*
X259819Y227362D01*
X259635Y227716D01*
X259491Y228072D01*
X259388Y228428D01*
X259327Y228785D01*
X259306Y229144D01*
X259322Y229537D01*
X259369Y229908D01*
X259447Y230255D01*
X259557Y230579D01*
X259698Y230880D01*
X259870Y231158D01*
X260074Y231413D01*
X260309Y231644D01*
X260573Y231851D01*
X260865Y232030D01*
X261183Y232181D01*
X261528Y232305D01*
X261900Y232401D01*
X262299Y232470D01*
X262725Y232511D01*
X263178Y232525D01*
X263593Y232511D01*
X263989Y232470D01*
X264365Y232402D01*
X264722Y232306D01*
X265060Y232183D01*
X265379Y232032D01*
X265678Y231854D01*
X265958Y231649D01*
X266215Y231420D01*
X266443Y231173D01*
X266642Y230907D01*
X266814Y230622D01*
X266956Y230318D01*
X267071Y229995D01*
X267157Y229653D01*
X267215Y229293D01*
X265604Y229144D01*
X265567Y229384D01*
X265513Y229611D01*
X265443Y229824D01*
X265355Y230023D01*
X265251Y230208D01*
X265130Y230380D01*
X264992Y230537D01*
X264837Y230681D01*
X264669Y230809D01*
X264489Y230921D01*
X264298Y231015D01*
X264096Y231092D01*
X263883Y231151D01*
X263659Y231194D01*
X263424Y231220D01*
X263178Y231228D01*
X262920Y231220D01*
X262677Y231193D01*
X262448Y231150D01*
X262234Y231088D01*
X262034Y231009D01*
X261849Y230913D01*
X261678Y230799D01*
X261522Y230668D01*
X261383Y230521D01*
X261262Y230359D01*
X261159Y230183D01*
X261076Y229993D01*
X261010Y229789D01*
X260964Y229571D01*
X260936Y229338D01*
X260927Y229091D01*
X260948Y228725D01*
X261013Y228378D01*
X261121Y228050D01*
X261273Y227743D01*
X261459Y227448D01*
X261672Y227160D01*
X261912Y226879D01*
X262179Y226604D01*
X262774Y226061D01*
X263436Y225518D01*
X264136Y224952D01*
X264842Y224340D01*
X265192Y224013D01*
X265535Y223668D01*
X265869Y223304D01*
X266195Y222921D01*
X266505Y222514D01*
X266789Y222077D01*
X267050Y221610D01*
X267285Y221112D01*
X267285Y220000D01*
G37*
G36*
X287254Y220000D02*
X279082Y220000D01*
X279082Y221340D01*
X285520Y221340D01*
X285368Y221650D01*
X285174Y221965D01*
X284939Y222287D01*
X284662Y222614D01*
X284338Y222955D01*
X283963Y223316D01*
X283537Y223697D01*
X283059Y224099D01*
X282217Y224795D01*
X281524Y225393D01*
X280978Y225894D01*
X280580Y226297D01*
X280276Y226652D01*
X280012Y227007D01*
X279788Y227362D01*
X279604Y227716D01*
X279460Y228072D01*
X279357Y228428D01*
X279296Y228785D01*
X279275Y229144D01*
X279291Y229537D01*
X279338Y229908D01*
X279416Y230255D01*
X279526Y230579D01*
X279667Y230880D01*
X279839Y231158D01*
X280043Y231413D01*
X280278Y231644D01*
X280542Y231851D01*
X280833Y232030D01*
X281151Y232181D01*
X281497Y232305D01*
X281869Y232401D01*
X282268Y232470D01*
X282693Y232511D01*
X283146Y232525D01*
X283562Y232511D01*
X283957Y232470D01*
X284334Y232402D01*
X284691Y232306D01*
X285029Y232183D01*
X285348Y232032D01*
X285647Y231854D01*
X285927Y231649D01*
X286183Y231420D01*
X286411Y231173D01*
X286611Y230907D01*
X286782Y230622D01*
X286925Y230318D01*
X287040Y229995D01*
X287126Y229653D01*
X287184Y229293D01*
X285573Y229144D01*
X285536Y229384D01*
X285482Y229611D01*
X285411Y229824D01*
X285324Y230023D01*
X285220Y230208D01*
X285099Y230380D01*
X284961Y230537D01*
X284806Y230681D01*
X284637Y230809D01*
X284458Y230921D01*
X284267Y231015D01*
X284065Y231092D01*
X283852Y231151D01*
X283628Y231194D01*
X283393Y231220D01*
X283146Y231228D01*
X282889Y231220D01*
X282646Y231193D01*
X282417Y231150D01*
X282203Y231088D01*
X282003Y231009D01*
X281818Y230913D01*
X281647Y230799D01*
X281491Y230668D01*
X281351Y230521D01*
X281230Y230359D01*
X281128Y230183D01*
X281044Y229993D01*
X280979Y229789D01*
X280933Y229571D01*
X280905Y229338D01*
X280895Y229091D01*
X280917Y228725D01*
X280982Y228378D01*
X281090Y228050D01*
X281241Y227743D01*
X281428Y227448D01*
X281641Y227160D01*
X281881Y226879D01*
X282148Y226604D01*
X282742Y226061D01*
X283405Y225518D01*
X284104Y224952D01*
X284811Y224340D01*
X285161Y224013D01*
X285504Y223668D01*
X285838Y223304D01*
X286164Y222921D01*
X286473Y222514D01*
X286758Y222077D01*
X287018Y221610D01*
X287254Y221112D01*
X287254Y220000D01*
G37*
G36*
X313160Y220000D02*
X304989Y220000D01*
X304989Y221340D01*
X311426Y221340D01*
X311274Y221650D01*
X311080Y221965D01*
X310845Y222287D01*
X310568Y222614D01*
X310244Y222955D01*
X309869Y223316D01*
X309443Y223697D01*
X308965Y224099D01*
X308124Y224795D01*
X307430Y225393D01*
X306884Y225894D01*
X306486Y226297D01*
X306182Y226652D01*
X305918Y227007D01*
X305694Y227362D01*
X305510Y227716D01*
X305366Y228072D01*
X305263Y228428D01*
X305202Y228785D01*
X305181Y229144D01*
X305197Y229537D01*
X305244Y229908D01*
X305322Y230255D01*
X305432Y230579D01*
X305573Y230880D01*
X305745Y231158D01*
X305949Y231413D01*
X306184Y231644D01*
X306448Y231851D01*
X306740Y232030D01*
X307058Y232181D01*
X307403Y232305D01*
X307775Y232401D01*
X308174Y232470D01*
X308600Y232511D01*
X309053Y232525D01*
X309468Y232511D01*
X309864Y232470D01*
X310240Y232402D01*
X310597Y232306D01*
X310935Y232183D01*
X311254Y232032D01*
X311553Y231854D01*
X311833Y231649D01*
X312090Y231420D01*
X312318Y231173D01*
X312517Y230907D01*
X312689Y230622D01*
X312831Y230318D01*
X312946Y229995D01*
X313032Y229653D01*
X313090Y229293D01*
X311479Y229144D01*
X311442Y229384D01*
X311388Y229611D01*
X311318Y229824D01*
X311230Y230023D01*
X311126Y230208D01*
X311005Y230380D01*
X310867Y230537D01*
X310712Y230681D01*
X310544Y230809D01*
X310364Y230921D01*
X310173Y231015D01*
X309971Y231092D01*
X309758Y231151D01*
X309534Y231194D01*
X309299Y231220D01*
X309053Y231228D01*
X308795Y231220D01*
X308552Y231193D01*
X308323Y231150D01*
X308109Y231088D01*
X307909Y231009D01*
X307724Y230913D01*
X307553Y230799D01*
X307397Y230668D01*
X307258Y230521D01*
X307137Y230359D01*
X307034Y230183D01*
X306951Y229993D01*
X306885Y229789D01*
X306839Y229571D01*
X306811Y229338D01*
X306802Y229091D01*
X306823Y228725D01*
X306888Y228378D01*
X306996Y228050D01*
X307148Y227743D01*
X307334Y227448D01*
X307547Y227160D01*
X307787Y226879D01*
X308054Y226604D01*
X308649Y226061D01*
X309311Y225518D01*
X310011Y224952D01*
X310717Y224340D01*
X311067Y224013D01*
X311410Y223668D01*
X311744Y223304D01*
X312070Y222921D01*
X312380Y222514D01*
X312664Y222077D01*
X312925Y221610D01*
X313160Y221112D01*
X313160Y220000D01*
G37*
G36*
X329098Y220000D02*
X320926Y220000D01*
X320926Y221340D01*
X327364Y221340D01*
X327212Y221650D01*
X327018Y221965D01*
X326782Y222287D01*
X326505Y222614D01*
X326182Y222955D01*
X325807Y223316D01*
X325380Y223697D01*
X324903Y224099D01*
X324061Y224795D01*
X323368Y225393D01*
X322822Y225894D01*
X322424Y226297D01*
X322120Y226652D01*
X321856Y227007D01*
X321632Y227362D01*
X321447Y227716D01*
X321304Y228072D01*
X321201Y228428D01*
X321139Y228785D01*
X321119Y229144D01*
X321135Y229537D01*
X321182Y229908D01*
X321260Y230255D01*
X321370Y230579D01*
X321511Y230880D01*
X321683Y231158D01*
X321887Y231413D01*
X322122Y231644D01*
X322386Y231851D01*
X322677Y232030D01*
X322995Y232181D01*
X323340Y232305D01*
X323712Y232401D01*
X324111Y232470D01*
X324537Y232511D01*
X324990Y232525D01*
X325405Y232511D01*
X325801Y232470D01*
X326178Y232402D01*
X326535Y232306D01*
X326873Y232183D01*
X327192Y232032D01*
X327491Y231854D01*
X327771Y231649D01*
X328027Y231420D01*
X328255Y231173D01*
X328455Y230907D01*
X328626Y230622D01*
X328769Y230318D01*
X328884Y229995D01*
X328970Y229653D01*
X329028Y229293D01*
X327416Y229144D01*
X327379Y229384D01*
X327326Y229611D01*
X327255Y229824D01*
X327168Y230023D01*
X327064Y230208D01*
X326942Y230380D01*
X326805Y230537D01*
X326650Y230681D01*
X326481Y230809D01*
X326301Y230921D01*
X326111Y231015D01*
X325909Y231092D01*
X325696Y231151D01*
X325472Y231194D01*
X325236Y231220D01*
X324990Y231228D01*
X324732Y231220D01*
X324489Y231193D01*
X324261Y231150D01*
X324046Y231088D01*
X323847Y231009D01*
X323662Y230913D01*
X323491Y230799D01*
X323335Y230668D01*
X323195Y230521D01*
X323074Y230359D01*
X322972Y230183D01*
X322888Y229993D01*
X322823Y229789D01*
X322776Y229571D01*
X322749Y229338D01*
X322739Y229091D01*
X322761Y228725D01*
X322826Y228378D01*
X322934Y228050D01*
X323085Y227743D01*
X323272Y227448D01*
X323485Y227160D01*
X323725Y226879D01*
X323992Y226604D01*
X324586Y226061D01*
X325249Y225518D01*
X325948Y224952D01*
X326654Y224340D01*
X327005Y224013D01*
X327347Y223668D01*
X327681Y223304D01*
X328007Y222921D01*
X328317Y222514D01*
X328602Y222077D01*
X328862Y221610D01*
X329098Y221112D01*
X329098Y220000D01*
G37*
G36*
X205009Y220000D02*
X197275Y220000D01*
X197275Y221340D01*
X200279Y221340D01*
X200279Y232341D01*
X201733Y232341D01*
X204650Y230335D01*
X204650Y228846D01*
X201864Y230834D01*
X201864Y221340D01*
X205009Y221340D01*
X205009Y220000D01*
G37*
G36*
X216809Y220000D02*
X214944Y220000D01*
X211405Y229477D01*
X213078Y229477D01*
X215233Y223293D01*
X215574Y222260D01*
X215881Y221235D01*
X216485Y223311D01*
X218570Y229477D01*
X220251Y229477D01*
X216809Y220000D01*
G37*
G36*
X293328Y224064D02*
X288949Y224064D01*
X288949Y225465D01*
X293328Y225465D01*
X293328Y224064D01*
G37*
G36*
X319234Y224064D02*
X314855Y224064D01*
X314855Y225465D01*
X319234Y225465D01*
X319234Y224064D01*
G37*
G36*
X259223Y190000D02*
X257717Y190000D01*
X257717Y202341D01*
X259863Y202341D01*
X263086Y193784D01*
X263201Y193467D01*
X263388Y192886D01*
X263573Y192263D01*
X263681Y191822D01*
X263896Y192676D01*
X264061Y193248D01*
X264233Y193784D01*
X267518Y202341D01*
X269716Y202341D01*
X269716Y190000D01*
X268227Y190000D01*
X268227Y198233D01*
X268262Y199888D01*
X268288Y200861D01*
X267999Y199897D01*
X267509Y198408D01*
X264277Y190000D01*
X263103Y190000D01*
X259915Y198408D01*
X259739Y198893D01*
X259552Y199464D01*
X259145Y200861D01*
X259204Y199573D01*
X259223Y198233D01*
X259223Y190000D01*
G37*
G36*
X252624Y189825D02*
X252343Y189832D01*
X252072Y189853D01*
X251812Y189888D01*
X251563Y189938D01*
X251325Y190001D01*
X251098Y190079D01*
X250881Y190170D01*
X250675Y190276D01*
X250478Y190399D01*
X250287Y190541D01*
X250102Y190703D01*
X249923Y190886D01*
X249750Y191088D01*
X249584Y191310D01*
X249269Y191813D01*
X249217Y191813D01*
X249169Y191355D01*
X249129Y191151D01*
X249078Y190962D01*
X249016Y190790D01*
X248943Y190635D01*
X248860Y190495D01*
X248766Y190372D01*
X248659Y190264D01*
X248537Y190171D01*
X248400Y190092D01*
X248248Y190027D01*
X248081Y189977D01*
X247900Y189941D01*
X247703Y189920D01*
X247491Y189912D01*
X247182Y189921D01*
X246876Y189947D01*
X246573Y189991D01*
X246274Y190053D01*
X246274Y191034D01*
X246548Y190988D01*
X246791Y190972D01*
X247028Y190994D01*
X247224Y191061D01*
X247379Y191172D01*
X247491Y191327D01*
X247572Y191526D01*
X247629Y191768D01*
X247664Y192054D01*
X247675Y192382D01*
X247675Y196464D01*
X247690Y196840D01*
X247732Y197193D01*
X247802Y197524D01*
X247901Y197831D01*
X248028Y198116D01*
X248183Y198378D01*
X248366Y198617D01*
X248578Y198833D01*
X248817Y199025D01*
X249084Y199191D01*
X249379Y199332D01*
X249701Y199447D01*
X250051Y199537D01*
X250428Y199601D01*
X250834Y199639D01*
X251266Y199652D01*
X251680Y199642D01*
X252069Y199612D01*
X252435Y199562D01*
X252778Y199492D01*
X253098Y199402D01*
X253394Y199292D01*
X253667Y199162D01*
X253916Y199013D01*
X254142Y198843D01*
X254344Y198653D01*
X254523Y198443D01*
X254679Y198213D01*
X254811Y197964D01*
X254920Y197694D01*
X255006Y197404D01*
X255068Y197094D01*
X253421Y196946D01*
X253391Y197136D01*
X253349Y197313D01*
X253295Y197476D01*
X253228Y197627D01*
X253150Y197763D01*
X253060Y197887D01*
X252957Y197996D01*
X252843Y198093D01*
X252713Y198177D01*
X252566Y198250D01*
X252400Y198312D01*
X252217Y198362D01*
X252015Y198401D01*
X251795Y198430D01*
X251301Y198452D01*
X251047Y198444D01*
X250811Y198421D01*
X250592Y198382D01*
X250391Y198327D01*
X250207Y198257D01*
X250040Y198171D01*
X249891Y198070D01*
X249760Y197953D01*
X249645Y197818D01*
X249545Y197662D01*
X249461Y197486D01*
X249392Y197289D01*
X249338Y197072D01*
X249300Y196834D01*
X249277Y196576D01*
X249269Y196297D01*
X249269Y195781D01*
X251398Y195746D01*
X251918Y195721D01*
X252401Y195673D01*
X252847Y195603D01*
X253256Y195509D01*
X253627Y195393D01*
X253962Y195253D01*
X254260Y195090D01*
X254520Y194905D01*
X254747Y194697D01*
X254944Y194468D01*
X255110Y194218D01*
X255246Y193946D01*
X255352Y193653D01*
X255428Y193338D01*
X255473Y193002D01*
X255488Y192645D01*
X255477Y192325D01*
X255443Y192023D01*
X255387Y191739D01*
X255308Y191471D01*
X255207Y191222D01*
X255084Y190990D01*
X254938Y190775D01*
X254770Y190578D01*
X254579Y190402D01*
X254366Y190249D01*
X254131Y190119D01*
X253874Y190013D01*
X253595Y189931D01*
X253293Y189872D01*
X252970Y189837D01*
X252624Y189825D01*
G37*
%LPC*%
G36*
X252265Y191007D02*
X252452Y191014D01*
X252628Y191034D01*
X252793Y191066D01*
X252947Y191112D01*
X253090Y191171D01*
X253221Y191244D01*
X253342Y191329D01*
X253452Y191428D01*
X253549Y191538D01*
X253634Y191660D01*
X253705Y191792D01*
X253764Y191936D01*
X253809Y192090D01*
X253842Y192255D01*
X253861Y192432D01*
X253868Y192619D01*
X253849Y192957D01*
X253791Y193260D01*
X253695Y193530D01*
X253561Y193766D01*
X253391Y193971D01*
X253188Y194147D01*
X252951Y194295D01*
X252681Y194414D01*
X252360Y194507D01*
X251973Y194576D01*
X251517Y194621D01*
X250995Y194642D01*
X249269Y194677D01*
X249269Y193898D01*
X249294Y193537D01*
X249367Y193180D01*
X249489Y192829D01*
X249659Y192483D01*
X249872Y192158D01*
X250120Y191869D01*
X250404Y191617D01*
X250723Y191401D01*
X251073Y191229D01*
X251446Y191106D01*
X251843Y191032D01*
X252051Y191013D01*
X252265Y191007D01*
G37*
%LPD*%
G36*
X211313Y189825D02*
X210944Y189834D01*
X210593Y189860D01*
X210259Y189904D01*
X209941Y189965D01*
X209641Y190044D01*
X209357Y190140D01*
X209090Y190254D01*
X208840Y190385D01*
X208608Y190534D01*
X208391Y190701D01*
X208192Y190885D01*
X208010Y191086D01*
X207845Y191305D01*
X207696Y191542D01*
X207565Y191796D01*
X207450Y192067D01*
X208834Y192461D01*
X208968Y192160D01*
X209153Y191885D01*
X209387Y191638D01*
X209670Y191419D01*
X209831Y191322D01*
X210005Y191239D01*
X210191Y191168D01*
X210390Y191110D01*
X210601Y191065D01*
X210826Y191033D01*
X211063Y191014D01*
X211313Y191007D01*
X211627Y191021D01*
X211922Y191063D01*
X212197Y191132D01*
X212453Y191228D01*
X212690Y191353D01*
X212907Y191505D01*
X213105Y191685D01*
X213283Y191892D01*
X213441Y192125D01*
X213578Y192381D01*
X213694Y192660D01*
X213789Y192963D01*
X213863Y193288D01*
X213916Y193638D01*
X213947Y194010D01*
X213958Y194406D01*
X207196Y194406D01*
X207196Y194616D01*
X207212Y195226D01*
X207261Y195796D01*
X207343Y196327D01*
X207457Y196819D01*
X207604Y197272D01*
X207784Y197685D01*
X207996Y198058D01*
X208241Y198393D01*
X208518Y198688D01*
X208828Y198944D01*
X209171Y199160D01*
X209546Y199337D01*
X209954Y199475D01*
X210395Y199573D01*
X210868Y199632D01*
X211374Y199652D01*
X211869Y199632D01*
X212335Y199574D01*
X212772Y199476D01*
X213179Y199339D01*
X213557Y199163D01*
X213905Y198947D01*
X214224Y198693D01*
X214514Y198399D01*
X214771Y198069D01*
X214995Y197705D01*
X215184Y197306D01*
X215338Y196873D01*
X215458Y196406D01*
X215544Y195905D01*
X215596Y195369D01*
X215613Y194800D01*
X215596Y194201D01*
X215544Y193641D01*
X215458Y193118D01*
X215338Y192634D01*
X215184Y192188D01*
X214995Y191780D01*
X214771Y191409D01*
X214514Y191077D01*
X214223Y190784D01*
X213902Y190529D01*
X213548Y190314D01*
X213164Y190138D01*
X212748Y190001D01*
X212301Y189903D01*
X211822Y189844D01*
X211313Y189825D01*
G37*
%LPC*%
G36*
X213940Y195614D02*
X213917Y195940D01*
X213875Y196248D01*
X213814Y196539D01*
X213733Y196811D01*
X213633Y197065D01*
X213514Y197302D01*
X213375Y197520D01*
X213218Y197721D01*
X213043Y197900D01*
X212853Y198056D01*
X212648Y198188D01*
X212428Y198295D01*
X212194Y198379D01*
X211944Y198439D01*
X211680Y198475D01*
X211400Y198487D01*
X211113Y198476D01*
X210843Y198444D01*
X210591Y198390D01*
X210356Y198315D01*
X210138Y198218D01*
X209937Y198100D01*
X209753Y197961D01*
X209587Y197799D01*
X209437Y197615D01*
X209303Y197405D01*
X209184Y197170D01*
X209081Y196909D01*
X208994Y196624D01*
X208922Y196312D01*
X208866Y195976D01*
X208825Y195614D01*
X213940Y195614D01*
G37*
%LPD*%
G36*
X231250Y189825D02*
X230882Y189834D01*
X230531Y189860D01*
X230196Y189904D01*
X229879Y189965D01*
X229578Y190044D01*
X229295Y190140D01*
X229028Y190254D01*
X228778Y190385D01*
X228545Y190534D01*
X228329Y190701D01*
X228130Y190885D01*
X227948Y191086D01*
X227782Y191305D01*
X227634Y191542D01*
X227502Y191796D01*
X227388Y192067D01*
X228771Y192461D01*
X228906Y192160D01*
X229090Y191885D01*
X229324Y191638D01*
X229608Y191419D01*
X229769Y191322D01*
X229942Y191239D01*
X230128Y191168D01*
X230327Y191110D01*
X230539Y191065D01*
X230763Y191033D01*
X231000Y191014D01*
X231250Y191007D01*
X231564Y191021D01*
X231859Y191063D01*
X232135Y191132D01*
X232391Y191228D01*
X232628Y191353D01*
X232845Y191505D01*
X233042Y191685D01*
X233221Y191892D01*
X233379Y192125D01*
X233516Y192381D01*
X233632Y192660D01*
X233727Y192963D01*
X233800Y193288D01*
X233853Y193638D01*
X233885Y194010D01*
X233895Y194406D01*
X227134Y194406D01*
X227134Y194616D01*
X227150Y195226D01*
X227199Y195796D01*
X227280Y196327D01*
X227395Y196819D01*
X227542Y197272D01*
X227721Y197685D01*
X227933Y198058D01*
X228178Y198393D01*
X228455Y198688D01*
X228766Y198944D01*
X229108Y199160D01*
X229484Y199337D01*
X229892Y199475D01*
X230332Y199573D01*
X230805Y199632D01*
X231311Y199652D01*
X231807Y199632D01*
X232273Y199574D01*
X232710Y199476D01*
X233117Y199339D01*
X233495Y199163D01*
X233843Y198947D01*
X234162Y198693D01*
X234451Y198399D01*
X234709Y198069D01*
X234932Y197705D01*
X235121Y197306D01*
X235276Y196873D01*
X235396Y196406D01*
X235482Y195905D01*
X235533Y195369D01*
X235551Y194800D01*
X235533Y194201D01*
X235482Y193641D01*
X235396Y193118D01*
X235276Y192634D01*
X235121Y192188D01*
X234932Y191780D01*
X234709Y191409D01*
X234451Y191077D01*
X234161Y190784D01*
X233839Y190529D01*
X233486Y190314D01*
X233101Y190138D01*
X232686Y190001D01*
X232238Y189903D01*
X231760Y189844D01*
X231250Y189825D01*
G37*
%LPC*%
G36*
X233878Y195614D02*
X233855Y195940D01*
X233813Y196248D01*
X233751Y196539D01*
X233671Y196811D01*
X233571Y197065D01*
X233451Y197302D01*
X233313Y197520D01*
X233155Y197721D01*
X232980Y197900D01*
X232790Y198056D01*
X232585Y198188D01*
X232366Y198295D01*
X232131Y198379D01*
X231882Y198439D01*
X231617Y198475D01*
X231338Y198487D01*
X231051Y198476D01*
X230781Y198444D01*
X230528Y198390D01*
X230293Y198315D01*
X230075Y198218D01*
X229874Y198100D01*
X229691Y197961D01*
X229525Y197799D01*
X229375Y197615D01*
X229241Y197405D01*
X229122Y197170D01*
X229019Y196909D01*
X228931Y196624D01*
X228860Y196312D01*
X228803Y195976D01*
X228763Y195614D01*
X233878Y195614D01*
G37*
%LPD*%
G36*
X287063Y189825D02*
X286694Y189834D01*
X286343Y189860D01*
X286009Y189904D01*
X285691Y189965D01*
X285391Y190044D01*
X285107Y190140D01*
X284840Y190254D01*
X284590Y190385D01*
X284358Y190534D01*
X284141Y190701D01*
X283942Y190885D01*
X283760Y191086D01*
X283595Y191305D01*
X283446Y191542D01*
X283315Y191796D01*
X283200Y192067D01*
X284584Y192461D01*
X284718Y192160D01*
X284903Y191885D01*
X285137Y191638D01*
X285420Y191419D01*
X285581Y191322D01*
X285755Y191239D01*
X285941Y191168D01*
X286140Y191110D01*
X286351Y191065D01*
X286576Y191033D01*
X286813Y191014D01*
X287063Y191007D01*
X287377Y191021D01*
X287672Y191063D01*
X287947Y191132D01*
X288203Y191228D01*
X288440Y191353D01*
X288657Y191505D01*
X288855Y191685D01*
X289033Y191892D01*
X289191Y192125D01*
X289328Y192381D01*
X289444Y192660D01*
X289539Y192963D01*
X289613Y193288D01*
X289666Y193638D01*
X289697Y194010D01*
X289708Y194406D01*
X282946Y194406D01*
X282946Y194616D01*
X282962Y195226D01*
X283011Y195796D01*
X283093Y196327D01*
X283207Y196819D01*
X283354Y197272D01*
X283534Y197685D01*
X283746Y198058D01*
X283991Y198393D01*
X284268Y198688D01*
X284578Y198944D01*
X284921Y199160D01*
X285296Y199337D01*
X285704Y199475D01*
X286145Y199573D01*
X286618Y199632D01*
X287124Y199652D01*
X287619Y199632D01*
X288085Y199574D01*
X288522Y199476D01*
X288929Y199339D01*
X289307Y199163D01*
X289655Y198947D01*
X289974Y198693D01*
X290264Y198399D01*
X290521Y198069D01*
X290745Y197705D01*
X290934Y197306D01*
X291088Y196873D01*
X291208Y196406D01*
X291294Y195905D01*
X291346Y195369D01*
X291363Y194800D01*
X291346Y194201D01*
X291294Y193641D01*
X291208Y193118D01*
X291088Y192634D01*
X290934Y192188D01*
X290745Y191780D01*
X290521Y191409D01*
X290264Y191077D01*
X289973Y190784D01*
X289652Y190529D01*
X289298Y190314D01*
X288914Y190138D01*
X288498Y190001D01*
X288051Y189903D01*
X287572Y189844D01*
X287063Y189825D01*
G37*
%LPC*%
G36*
X289690Y195614D02*
X289667Y195940D01*
X289625Y196248D01*
X289564Y196539D01*
X289483Y196811D01*
X289383Y197065D01*
X289264Y197302D01*
X289125Y197520D01*
X288968Y197721D01*
X288793Y197900D01*
X288603Y198056D01*
X288398Y198188D01*
X288178Y198295D01*
X287944Y198379D01*
X287694Y198439D01*
X287430Y198475D01*
X287150Y198487D01*
X286863Y198476D01*
X286593Y198444D01*
X286341Y198390D01*
X286106Y198315D01*
X285888Y198218D01*
X285687Y198100D01*
X285503Y197961D01*
X285337Y197799D01*
X285187Y197615D01*
X285053Y197405D01*
X284934Y197170D01*
X284831Y196909D01*
X284744Y196624D01*
X284672Y196312D01*
X284616Y195976D01*
X284575Y195614D01*
X289690Y195614D01*
G37*
%LPD*%
G36*
X320182Y190000D02*
X318509Y190000D01*
X318509Y202341D01*
X320182Y202341D01*
X320182Y197121D01*
X326856Y197121D01*
X326856Y202341D01*
X328529Y202341D01*
X328529Y190000D01*
X326856Y190000D01*
X326856Y195719D01*
X320182Y195719D01*
X320182Y190000D01*
G37*
G36*
X299868Y190000D02*
X298283Y190000D01*
X298283Y196315D01*
X298294Y196746D01*
X298328Y197145D01*
X298384Y197513D01*
X298463Y197849D01*
X298565Y198153D01*
X298689Y198426D01*
X298836Y198667D01*
X299005Y198877D01*
X299199Y199058D01*
X299419Y199216D01*
X299665Y199349D01*
X299937Y199458D01*
X300235Y199543D01*
X300560Y199603D01*
X300910Y199640D01*
X301287Y199652D01*
X301546Y199646D01*
X301795Y199626D01*
X302033Y199595D01*
X302260Y199550D01*
X302476Y199493D01*
X302682Y199423D01*
X302877Y199340D01*
X303060Y199245D01*
X303236Y199134D01*
X303407Y199005D01*
X303572Y198859D01*
X303732Y198694D01*
X304035Y198311D01*
X304317Y197856D01*
X304344Y197856D01*
X304374Y198798D01*
X304396Y199240D01*
X304414Y199477D01*
X305903Y199477D01*
X305880Y199212D01*
X305863Y198787D01*
X305850Y197454D01*
X305850Y190000D01*
X304274Y190000D01*
X304274Y195492D01*
X304263Y195828D01*
X304232Y196146D01*
X304181Y196445D01*
X304109Y196724D01*
X304017Y196985D01*
X303904Y197227D01*
X303771Y197451D01*
X303617Y197655D01*
X303445Y197838D01*
X303258Y197996D01*
X303056Y198130D01*
X302839Y198240D01*
X302607Y198325D01*
X302360Y198386D01*
X302098Y198422D01*
X301821Y198434D01*
X301455Y198420D01*
X301136Y198378D01*
X300864Y198306D01*
X300639Y198207D01*
X300451Y198075D01*
X300291Y197907D01*
X300158Y197703D01*
X300052Y197462D01*
X299971Y197178D01*
X299914Y196840D01*
X299879Y196451D01*
X299868Y196008D01*
X299868Y190000D01*
G37*
G36*
X312893Y189825D02*
X312634Y189831D01*
X312385Y189850D01*
X312147Y189882D01*
X311920Y189927D01*
X311704Y189984D01*
X311498Y190054D01*
X311304Y190137D01*
X311120Y190232D01*
X310944Y190343D01*
X310774Y190472D01*
X310609Y190618D01*
X310449Y190783D01*
X310145Y191166D01*
X309863Y191620D01*
X309837Y191620D01*
X309806Y190679D01*
X309784Y190236D01*
X309767Y190000D01*
X308278Y190000D01*
X308301Y190264D01*
X308317Y190690D01*
X308330Y192023D01*
X308330Y199477D01*
X309907Y199477D01*
X309907Y193985D01*
X309917Y193649D01*
X309948Y193331D01*
X309999Y193032D01*
X310071Y192752D01*
X310163Y192491D01*
X310276Y192249D01*
X310410Y192026D01*
X310564Y191822D01*
X310735Y191639D01*
X310922Y191481D01*
X311124Y191347D01*
X311341Y191237D01*
X311573Y191152D01*
X311820Y191091D01*
X312082Y191054D01*
X312359Y191042D01*
X312725Y191056D01*
X313045Y191099D01*
X313317Y191170D01*
X313542Y191270D01*
X313729Y191402D01*
X313890Y191570D01*
X314023Y191774D01*
X314128Y192014D01*
X314209Y192299D01*
X314266Y192636D01*
X314301Y193026D01*
X314312Y193468D01*
X314312Y199477D01*
X315898Y199477D01*
X315898Y193162D01*
X315886Y192731D01*
X315852Y192332D01*
X315796Y191964D01*
X315717Y191628D01*
X315615Y191324D01*
X315491Y191051D01*
X315344Y190810D01*
X315175Y190600D01*
X314981Y190418D01*
X314761Y190261D01*
X314516Y190128D01*
X314243Y190019D01*
X313945Y189934D01*
X313621Y189873D01*
X313270Y189837D01*
X312893Y189825D01*
G37*
G36*
X218117Y189860D02*
X217712Y189873D01*
X217311Y189912D01*
X216915Y189978D01*
X216523Y190070D01*
X216523Y191235D01*
X217048Y191143D01*
X217434Y191112D01*
X217689Y191130D01*
X217903Y191181D01*
X218077Y191268D01*
X218209Y191388D01*
X218307Y191552D01*
X218376Y191766D01*
X218418Y192031D01*
X218432Y192347D01*
X218432Y198329D01*
X216680Y198329D01*
X216680Y199477D01*
X218432Y199477D01*
X218432Y201596D01*
X219483Y201596D01*
X219947Y199477D01*
X221104Y199477D01*
X221104Y198329D01*
X220009Y198329D01*
X220009Y192006D01*
X220001Y191746D01*
X219979Y191503D01*
X219942Y191276D01*
X219890Y191067D01*
X219824Y190874D01*
X219743Y190698D01*
X219647Y190539D01*
X219536Y190396D01*
X219410Y190271D01*
X219270Y190162D01*
X219115Y190069D01*
X218945Y189994D01*
X218760Y189935D01*
X218560Y189893D01*
X218346Y189868D01*
X218117Y189860D01*
G37*
G36*
X223086Y189860D02*
X222681Y189873D01*
X222280Y189912D01*
X221883Y189978D01*
X221492Y190070D01*
X221492Y191235D01*
X222017Y191143D01*
X222402Y191112D01*
X222658Y191130D01*
X222872Y191181D01*
X223045Y191268D01*
X223178Y191388D01*
X223275Y191552D01*
X223345Y191766D01*
X223387Y192031D01*
X223401Y192347D01*
X223401Y198329D01*
X221649Y198329D01*
X221649Y199477D01*
X223401Y199477D01*
X223401Y201596D01*
X224452Y201596D01*
X224916Y199477D01*
X226072Y199477D01*
X226072Y198329D01*
X224977Y198329D01*
X224977Y192006D01*
X224970Y191746D01*
X224948Y191503D01*
X224911Y191276D01*
X224859Y191067D01*
X224793Y190874D01*
X224711Y190698D01*
X224615Y190539D01*
X224504Y190396D01*
X224379Y190271D01*
X224238Y190162D01*
X224083Y190069D01*
X223913Y189994D01*
X223729Y189935D01*
X223529Y189893D01*
X223315Y189868D01*
X223086Y189860D01*
G37*
G36*
X293867Y189860D02*
X293462Y189873D01*
X293061Y189912D01*
X292665Y189978D01*
X292273Y190070D01*
X292273Y191235D01*
X292798Y191143D01*
X293184Y191112D01*
X293439Y191130D01*
X293653Y191181D01*
X293827Y191268D01*
X293959Y191388D01*
X294057Y191552D01*
X294126Y191766D01*
X294168Y192031D01*
X294182Y192347D01*
X294182Y198329D01*
X292430Y198329D01*
X292430Y199477D01*
X294182Y199477D01*
X294182Y201596D01*
X295233Y201596D01*
X295697Y199477D01*
X296854Y199477D01*
X296854Y198329D01*
X295759Y198329D01*
X295759Y192006D01*
X295751Y191746D01*
X295729Y191503D01*
X295692Y191276D01*
X295640Y191067D01*
X295574Y190874D01*
X295493Y190698D01*
X295397Y190539D01*
X295286Y190396D01*
X295160Y190271D01*
X295020Y190162D01*
X294865Y190069D01*
X294695Y189994D01*
X294510Y189935D01*
X294310Y189893D01*
X294096Y189868D01*
X293867Y189860D01*
G37*
G36*
X239104Y190000D02*
X237527Y190000D01*
X237527Y202998D01*
X239104Y202998D01*
X239104Y190000D01*
G37*
G36*
X245038Y190000D02*
X243461Y190000D01*
X243461Y194940D01*
X243453Y195323D01*
X243429Y195682D01*
X243388Y196019D01*
X243332Y196334D01*
X243259Y196625D01*
X243170Y196893D01*
X243065Y197139D01*
X242944Y197362D01*
X242808Y197560D01*
X242657Y197731D01*
X242491Y197877D01*
X242311Y197995D01*
X242117Y198088D01*
X241908Y198154D01*
X241685Y198194D01*
X241447Y198207D01*
X240974Y198185D01*
X240777Y198157D01*
X240606Y198119D01*
X240606Y199564D01*
X240928Y199630D01*
X241245Y199652D01*
X241462Y199645D01*
X241667Y199624D01*
X241858Y199589D01*
X242038Y199540D01*
X242204Y199477D01*
X242359Y199401D01*
X242500Y199310D01*
X242629Y199205D01*
X242750Y199082D01*
X242867Y198934D01*
X243091Y198566D01*
X243301Y198102D01*
X243496Y197541D01*
X243531Y197541D01*
X243601Y199477D01*
X245090Y199477D01*
X245051Y198321D01*
X245038Y197270D01*
X245038Y190000D01*
G37*
G36*
X280913Y190000D02*
X279336Y190000D01*
X279336Y194940D01*
X279328Y195323D01*
X279304Y195682D01*
X279263Y196019D01*
X279207Y196334D01*
X279134Y196625D01*
X279045Y196893D01*
X278940Y197139D01*
X278819Y197362D01*
X278683Y197560D01*
X278532Y197731D01*
X278366Y197877D01*
X278186Y197995D01*
X277992Y198088D01*
X277783Y198154D01*
X277560Y198194D01*
X277322Y198207D01*
X276849Y198185D01*
X276652Y198157D01*
X276481Y198119D01*
X276481Y199564D01*
X276803Y199630D01*
X277120Y199652D01*
X277337Y199645D01*
X277542Y199624D01*
X277733Y199589D01*
X277913Y199540D01*
X278079Y199477D01*
X278234Y199401D01*
X278375Y199310D01*
X278504Y199205D01*
X278625Y199082D01*
X278742Y198934D01*
X278966Y198566D01*
X279176Y198102D01*
X279371Y197541D01*
X279406Y197541D01*
X279476Y199477D01*
X280965Y199477D01*
X280926Y198321D01*
X280913Y197270D01*
X280913Y190000D01*
G37*
G36*
X299520Y325700D02*
X296821Y325700D01*
X299639Y329977D01*
X301728Y333147D01*
X301248Y333248D01*
X300794Y333379D01*
X300367Y333541D01*
X299966Y333733D01*
X299748Y333862D01*
X299592Y333955D01*
X299245Y334207D01*
X298925Y334490D01*
X298631Y334803D01*
X298367Y335141D01*
X298139Y335498D01*
X297947Y335874D01*
X297789Y336269D01*
X297666Y336683D01*
X297578Y337117D01*
X297526Y337570D01*
X297508Y338042D01*
X297514Y338329D01*
X297533Y338608D01*
X297564Y338880D01*
X297607Y339143D01*
X297731Y339646D01*
X297905Y340117D01*
X298129Y340555D01*
X298402Y340962D01*
X298724Y341337D01*
X299097Y341679D01*
X299515Y341985D01*
X299974Y342251D01*
X300475Y342475D01*
X301018Y342659D01*
X301603Y342802D01*
X302229Y342904D01*
X302896Y342965D01*
X303605Y342986D01*
X311739Y342986D01*
X311739Y325700D01*
X309396Y325700D01*
X309396Y332877D01*
X304010Y332877D01*
X299520Y325700D01*
G37*
%LPC*%
G36*
X309396Y334729D02*
X309396Y341109D01*
X303838Y341109D01*
X303371Y341096D01*
X302932Y341059D01*
X302521Y340997D01*
X302138Y340911D01*
X301783Y340800D01*
X301456Y340664D01*
X301158Y340503D01*
X300888Y340317D01*
X300648Y340108D01*
X300440Y339877D01*
X300264Y339623D01*
X300120Y339347D01*
X300008Y339048D01*
X299928Y338727D01*
X299880Y338383D01*
X299864Y338017D01*
X299879Y337638D01*
X299927Y337281D01*
X300006Y336946D01*
X300117Y336632D01*
X300259Y336340D01*
X300433Y336070D01*
X300638Y335821D01*
X300876Y335594D01*
X301142Y335391D01*
X301434Y335216D01*
X301753Y335067D01*
X302098Y334946D01*
X302469Y334851D01*
X302867Y334783D01*
X303290Y334743D01*
X303740Y334729D01*
X309396Y334729D01*
G37*
%LPD*%
G36*
X260083Y325700D02*
X246465Y325700D01*
X246465Y327614D01*
X257740Y327614D01*
X257740Y333637D01*
X247704Y333637D01*
X247704Y335527D01*
X257740Y335527D01*
X257740Y341072D01*
X246968Y341072D01*
X246968Y342986D01*
X260083Y342986D01*
X260083Y325700D01*
G37*
G36*
X293614Y325700D02*
X279996Y325700D01*
X279996Y327614D01*
X291271Y327614D01*
X291271Y333637D01*
X281236Y333637D01*
X281236Y335527D01*
X291271Y335527D01*
X291271Y341072D01*
X280499Y341072D01*
X280499Y342986D01*
X293614Y342986D01*
X293614Y325700D01*
G37*
G36*
X270460Y325455D02*
X269634Y325475D01*
X268856Y325537D01*
X268126Y325639D01*
X267444Y325783D01*
X266809Y325967D01*
X266222Y326193D01*
X265683Y326460D01*
X265191Y326767D01*
X264752Y327112D01*
X264372Y327491D01*
X264204Y327693D01*
X264051Y327904D01*
X263912Y328123D01*
X263788Y328350D01*
X263678Y328586D01*
X263583Y328830D01*
X263503Y329083D01*
X263437Y329344D01*
X263386Y329613D01*
X263349Y329891D01*
X263327Y330177D01*
X263320Y330472D01*
X263337Y330929D01*
X263386Y331356D01*
X263468Y331751D01*
X263584Y332116D01*
X263728Y332454D01*
X263898Y332769D01*
X264093Y333062D01*
X264314Y333331D01*
X264557Y333578D01*
X264821Y333806D01*
X265106Y334014D01*
X265412Y334202D01*
X266067Y334535D01*
X266767Y334821D01*
X267508Y335067D01*
X268282Y335275D01*
X269871Y335649D01*
X270962Y335903D01*
X271856Y336136D01*
X272551Y336348D01*
X273049Y336539D01*
X273424Y336730D01*
X273753Y336941D01*
X274034Y337171D01*
X274269Y337422D01*
X274454Y337700D01*
X274527Y337852D01*
X274587Y338013D01*
X274633Y338182D01*
X274666Y338359D01*
X274686Y338546D01*
X274693Y338741D01*
X274675Y339071D01*
X274624Y339380D01*
X274539Y339667D01*
X274420Y339934D01*
X274266Y340180D01*
X274078Y340404D01*
X273857Y340607D01*
X273601Y340790D01*
X273312Y340951D01*
X272993Y341090D01*
X272644Y341208D01*
X272263Y341305D01*
X271852Y341380D01*
X271411Y341434D01*
X270939Y341466D01*
X270436Y341477D01*
X269976Y341467D01*
X269542Y341438D01*
X269134Y341390D01*
X268752Y341322D01*
X268395Y341235D01*
X268064Y341128D01*
X267759Y341002D01*
X267479Y340857D01*
X267223Y340691D01*
X266988Y340500D01*
X266775Y340286D01*
X266583Y340049D01*
X266413Y339788D01*
X266264Y339503D01*
X266137Y339195D01*
X266031Y338864D01*
X263725Y339268D01*
X263896Y339792D01*
X264096Y340275D01*
X264325Y340719D01*
X264584Y341122D01*
X264871Y341487D01*
X265188Y341811D01*
X265534Y342096D01*
X265909Y342342D01*
X266320Y342553D01*
X266774Y342736D01*
X267272Y342891D01*
X267813Y343018D01*
X268398Y343117D01*
X269025Y343187D01*
X269697Y343229D01*
X270411Y343243D01*
X271179Y343225D01*
X271902Y343168D01*
X272579Y343074D01*
X273210Y342943D01*
X273795Y342774D01*
X274334Y342567D01*
X274828Y342323D01*
X275275Y342041D01*
X275674Y341725D01*
X276019Y341376D01*
X276311Y340996D01*
X276550Y340584D01*
X276735Y340140D01*
X276808Y339907D01*
X276868Y339665D01*
X276915Y339415D01*
X276948Y339157D01*
X276968Y338892D01*
X276974Y338618D01*
X276954Y338147D01*
X276893Y337704D01*
X276792Y337289D01*
X276649Y336901D01*
X276469Y336538D01*
X276252Y336200D01*
X275999Y335885D01*
X275711Y335594D01*
X275376Y335322D01*
X274985Y335062D01*
X274539Y334816D01*
X274036Y334582D01*
X273444Y334355D01*
X272728Y334128D01*
X271889Y333901D01*
X270926Y333674D01*
X268779Y333171D01*
X268312Y333048D01*
X267878Y332911D01*
X267477Y332760D01*
X267111Y332595D01*
X266781Y332411D01*
X266490Y332205D01*
X266238Y331976D01*
X266025Y331724D01*
X265856Y331440D01*
X265735Y331116D01*
X265693Y330940D01*
X265663Y330753D01*
X265645Y330556D01*
X265639Y330350D01*
X265658Y329984D01*
X265716Y329641D01*
X265812Y329321D01*
X265947Y329023D01*
X266120Y328749D01*
X266332Y328497D01*
X266583Y328268D01*
X266872Y328062D01*
X267196Y327879D01*
X267553Y327721D01*
X267942Y327587D01*
X268364Y327477D01*
X268818Y327392D01*
X269304Y327331D01*
X269823Y327295D01*
X270374Y327283D01*
X270909Y327294D01*
X271415Y327328D01*
X271892Y327385D01*
X272340Y327465D01*
X272760Y327568D01*
X273151Y327693D01*
X273513Y327841D01*
X273846Y328013D01*
X274151Y328208D01*
X274429Y328429D01*
X274679Y328676D01*
X274901Y328950D01*
X275096Y329248D01*
X275263Y329573D01*
X275403Y329924D01*
X275515Y330301D01*
X277784Y329847D01*
X277638Y329315D01*
X277450Y328817D01*
X277220Y328354D01*
X276949Y327925D01*
X276637Y327531D01*
X276283Y327170D01*
X275887Y326844D01*
X275450Y326553D01*
X274972Y326295D01*
X274452Y326072D01*
X273890Y325884D01*
X273287Y325729D01*
X272643Y325609D01*
X271957Y325523D01*
X271229Y325472D01*
X270460Y325455D01*
G37*
G36*
X238892Y325700D02*
X236561Y325700D01*
X236561Y341072D01*
X230623Y341072D01*
X230623Y342986D01*
X244829Y342986D01*
X244829Y341072D01*
X238892Y341072D01*
X238892Y325700D01*
G37*
G36*
X109137Y43650D02*
X101403Y43650D01*
X101403Y44990D01*
X104407Y44990D01*
X104407Y55991D01*
X105861Y55991D01*
X108778Y53985D01*
X108778Y52496D01*
X105993Y54484D01*
X105993Y44990D01*
X109137Y44990D01*
X109137Y43650D01*
G37*
G36*
X115470Y43475D02*
X115058Y43491D01*
X114669Y43539D01*
X114303Y43620D01*
X113959Y43732D01*
X113637Y43877D01*
X113338Y44054D01*
X113061Y44263D01*
X112807Y44504D01*
X112579Y44773D01*
X112382Y45066D01*
X112215Y45384D01*
X112078Y45725D01*
X111971Y46090D01*
X111895Y46479D01*
X111850Y46892D01*
X111835Y47329D01*
X111835Y55991D01*
X115872Y55991D01*
X115872Y54624D01*
X113499Y54624D01*
X113499Y47294D01*
X113507Y47000D01*
X113532Y46726D01*
X113573Y46469D01*
X113630Y46230D01*
X113704Y46010D01*
X113794Y45808D01*
X113901Y45624D01*
X114024Y45459D01*
X114162Y45312D01*
X114311Y45185D01*
X114473Y45077D01*
X114646Y44989D01*
X114832Y44920D01*
X115029Y44872D01*
X115239Y44842D01*
X115461Y44832D01*
X115664Y44841D01*
X115859Y44868D01*
X116045Y44912D01*
X116223Y44975D01*
X116391Y45055D01*
X116551Y45153D01*
X116702Y45268D01*
X116845Y45402D01*
X116976Y45551D01*
X117096Y45714D01*
X117203Y45892D01*
X117298Y46083D01*
X117380Y46288D01*
X117451Y46507D01*
X117508Y46740D01*
X117554Y46987D01*
X119192Y46715D01*
X119109Y46323D01*
X119005Y45956D01*
X118882Y45614D01*
X118739Y45298D01*
X118576Y45007D01*
X118393Y44741D01*
X118191Y44500D01*
X117968Y44285D01*
X117725Y44095D01*
X117463Y43931D01*
X117180Y43791D01*
X116878Y43677D01*
X116556Y43589D01*
X116214Y43525D01*
X115852Y43488D01*
X115470Y43475D01*
G37*
D10*
X304500Y388000D02*
X304500Y438500D01*
X235500Y438500D01*
X235500Y388000D01*
X304500Y363000D02*
X304500Y360000D01*
X235500Y360000D01*
X235500Y363000D01*
M02*
