M48
;GenerationSoftware,Autodesk,EAGLE,9.7.0*%
;CreationDate,2023-02-24T20:41:18Z*%
FMAT,2
ICI,OFF
METRIC,TZ,000.000
T8C0.350
T7C0.700
T6C0.733
T5C0.737
T4C0.920
T3C1.016
T2C2.300
T1C3.302
%
G90
M71
T1
X7000Y4500
X7000Y62500
X56000Y4500
X56000Y62500
T2
X51664Y88076
X51664Y100116
X51664Y71120
X51664Y83160
X9636Y78026
X9636Y91166
T3
X54730Y27150
X54730Y19530
X57270Y14450
X57270Y9370
X54730Y9370
X57270Y11910
X54730Y11910
X54730Y14450
X54730Y57630
X57270Y57630
X54730Y55090
X57270Y55090
X54730Y52550
X57270Y52550
X54730Y50010
X57270Y50010
X54730Y47470
X57270Y47470
X54730Y44930
X57270Y44930
X54730Y42390
X57270Y42390
X54730Y39850
X57270Y39850
X54730Y37310
X57270Y37310
X54730Y34770
X57270Y34770
X54730Y32230
X57270Y32230
X54730Y29690
X57270Y29690
X57270Y16990
X57270Y27150
X54730Y24610
X57270Y24610
X54730Y22070
X57270Y22070
X54730Y16990
X57270Y19530
T4
X12346Y85596
X12346Y83596
X12346Y81096
X12346Y88096
X48954Y92846
X46954Y92846
X48954Y95346
X46954Y95346
X48954Y75890
X46954Y75890
X48954Y78390
X46954Y78390
T5
X7138Y55000
X7000Y31500
X7000Y27000
X7000Y25500
X7000Y48000
X7000Y46500
X7000Y45000
X7000Y39000
X7000Y37500
X7000Y33000
X7138Y53500
T6
X34040Y64160
X26190Y50540
X26190Y48000
X26190Y45460
X33810Y45460
X34040Y61620
X33810Y50540
X34040Y59080
X26420Y59080
X26420Y61620
X26420Y64160
X33810Y48000
T7
X7000Y11000
X7000Y20000
X7000Y18500
X7000Y17000
X7000Y15500
X7000Y14000
X7000Y12500
T8
X50000Y19000
X52000Y17000
X44000Y25000
X51000Y21000
X39000Y43000
X14000Y44000
X24000Y79000
X46000Y62000
X51000Y65000
X41000Y67000
X29000Y83000
X27000Y79000
X25000Y81989
X16000Y52000
M30